# Blender 5.2.0 LTS
# www.blender.org
mtllib NuclearLogo.mtl
o Circle.002
v -2.222745 0.988624 1.517871
v -2.089487 0.988624 1.677152
v -1.927714 0.988624 1.807374
v -1.743646 0.988624 1.903534
v -1.544353 0.988624 1.961937
v -1.337497 0.988624 1.980337
v -2.322370 0.831843 1.335654
v -2.384531 0.831843 1.137502
v -2.406840 0.831843 0.931031
v -2.388439 0.831843 0.724174
v -2.330037 0.831843 0.524882
v -0.372661 0.988624 0.506371
v -0.536730 0.988624 0.368101
v -0.605543 0.988624 0.164873
v -0.605543 0.831843 0.164873
v -0.536730 0.831843 0.368101
v -0.372661 0.831843 0.506371
v -1.337497 0.831843 1.980337
v -1.544353 0.831843 1.961937
v -1.743646 0.831843 1.903534
v -1.927714 0.831843 1.807374
v -2.089487 0.831843 1.677152
v -2.222745 0.831843 1.517871
v -2.330037 0.988624 0.524882
v -2.388439 0.988624 0.724174
v -2.406840 0.988624 0.931031
v -2.384531 0.988624 1.137502
v -2.322370 0.988624 1.335654
v 3.458220 0.712207 -0.000000
v 3.416101 0.869399 0.000000
v 3.301028 0.984472 0.000000
v 3.143836 1.026591 -0.000000
v 2.986644 0.984472 -0.000000
v 2.871572 0.869399 0.000000
v 2.829452 0.712207 0.000000
v 2.871572 0.555016 0.000000
v 2.986644 0.439943 -0.000000
v 3.143836 0.397824 -0.000000
v 3.301028 0.439943 0.000000
v 3.416101 0.555016 0.000000
v 3.428634 0.712207 -0.451388
v 3.386875 0.869399 -0.445890
v 3.272787 0.984472 -0.430871
v 3.116940 1.026591 -0.410353
v 2.961093 0.984472 -0.389835
v 2.847005 0.869399 -0.374815
v 2.805246 0.712207 -0.369318
v 2.847005 0.555016 -0.374815
v 2.961093 0.439943 -0.389835
v 3.116940 0.397824 -0.410353
v 3.272787 0.439943 -0.430871
v 3.386875 0.555016 -0.445890
v 3.340384 0.712207 -0.895053
v 3.299699 0.869399 -0.884151
v 3.188548 0.984472 -0.854369
v 3.036713 1.026591 -0.813684
v 2.884877 0.984472 -0.773000
v 2.773725 0.869399 -0.743217
v 2.733041 0.712207 -0.732316
v 2.773725 0.555016 -0.743217
v 2.884877 0.439943 -0.773000
v 3.036713 0.397824 -0.813684
v 3.188548 0.439943 -0.854369
v 3.299699 0.555016 -0.884151
v 3.194979 0.712207 -1.323403
v 3.156065 0.869399 -1.307285
v 3.049752 0.984472 -1.263248
v 2.904526 1.026591 -1.203094
v 2.759299 0.984472 -1.142939
v 2.652987 0.869399 -1.098903
v 2.614073 0.712207 -1.082784
v 2.652987 0.555016 -1.098903
v 2.759299 0.439943 -1.142939
v 2.904526 0.397824 -1.203094
v 3.049752 0.439943 -1.263248
v 3.156065 0.555016 -1.307285
v 2.994906 0.712207 -1.729110
v 2.958429 0.869399 -1.708050
v 2.858774 0.984472 -1.650514
v 2.722642 1.026591 -1.571918
v 2.586510 0.984472 -1.493323
v 2.486854 0.869399 -1.435786
v 2.450377 0.712207 -1.414726
v 2.486854 0.555016 -1.435786
v 2.586510 0.439943 -1.493323
v 2.722642 0.397824 -1.571918
v 2.858774 0.439943 -1.650514
v 2.958429 0.555016 -1.708050
v 2.743591 0.712207 -2.105230
v 2.710175 0.869399 -2.079590
v 2.618882 0.984472 -2.009538
v 2.494174 1.026591 -1.913846
v 2.369465 0.984472 -1.818153
v 2.278172 0.869399 -1.748102
v 2.244756 0.712207 -1.722461
v 2.278172 0.555016 -1.748102
v 2.369465 0.439943 -1.818153
v 2.494174 0.397824 -1.913846
v 2.618882 0.439943 -2.009538
v 2.710175 0.555016 -2.079590
v 2.445331 0.712207 -2.445331
v 2.415547 0.869399 -2.415548
v 2.334179 0.984472 -2.334179
v 2.223028 1.026591 -2.223028
v 2.111876 0.984472 -2.111876
v 2.030508 0.869399 -2.030508
v 2.000725 0.712207 -2.000725
v 2.030508 0.555016 -2.030508
v 2.111876 0.439943 -2.111876
v 2.223028 0.397824 -2.223028
v 2.334179 0.439943 -2.334179
v 2.415547 0.555016 -2.415548
v 2.105231 0.712207 -2.743589
v 2.079591 0.869399 -2.710174
v 2.009539 0.984472 -2.618881
v 1.913846 1.026591 -2.494172
v 1.818154 0.984472 -2.369464
v 1.748102 0.869399 -2.278171
v 1.722462 0.712207 -2.244755
v 1.748102 0.555016 -2.278171
v 1.818154 0.439943 -2.369464
v 1.913846 0.397824 -2.494172
v 2.009539 0.439943 -2.618881
v 2.079591 0.555016 -2.710174
v 1.729110 0.712207 -2.994906
v 1.708050 0.869399 -2.958430
v 1.650514 0.984472 -2.858774
v 1.571918 1.026591 -2.722642
v 1.493322 0.984472 -2.586510
v 1.435786 0.869399 -2.486854
v 1.414726 0.712207 -2.450378
v 1.435786 0.555016 -2.486854
v 1.493322 0.439943 -2.586510
v 1.571918 0.397824 -2.722642
v 1.650514 0.439943 -2.858774
v 1.708050 0.555016 -2.958430
v 1.323405 0.712207 -3.194978
v 1.307286 0.869399 -3.156065
v 1.263249 0.984472 -3.049752
v 1.203095 1.026591 -2.904526
v 1.142940 0.984472 -2.759299
v 1.098904 0.869399 -2.652986
v 1.082785 0.712207 -2.614073
v 1.098904 0.555016 -2.652986
v 1.142940 0.439943 -2.759299
v 1.203095 0.397824 -2.904526
v 1.263249 0.439943 -3.049752
v 1.307286 0.555016 -3.156065
v 0.895053 0.712207 -3.340384
v 0.884152 0.869399 -3.299699
v 0.854369 0.984472 -3.188548
v 0.813684 1.026591 -3.036712
v 0.773000 0.984472 -2.884877
v 0.743217 0.869399 -2.773725
v 0.732316 0.712207 -2.733041
v 0.743217 0.555016 -2.773725
v 0.773000 0.439943 -2.884877
v 0.813684 0.397824 -3.036712
v 0.854369 0.439943 -3.188548
v 0.884152 0.555016 -3.299699
v 0.451388 0.712207 -3.428634
v 0.445890 0.869399 -3.386875
v 0.430870 0.984472 -3.272787
v 0.410352 1.026591 -3.116940
v 0.389835 0.984472 -2.961093
v 0.374815 0.869399 -2.847005
v 0.369317 0.712207 -2.805246
v 0.374815 0.555016 -2.847005
v 0.389835 0.439943 -2.961093
v 0.410352 0.397824 -3.116940
v 0.430870 0.439943 -3.272787
v 0.445890 0.555016 -3.386875
v 0.000000 0.712207 -3.458220
v 0.000000 0.869399 -3.416100
v 0.000000 0.984472 -3.301028
v 0.000000 1.026591 -3.143836
v 0.000000 0.984472 -2.986644
v 0.000000 0.869399 -2.871572
v 0.000000 0.712207 -2.829453
v 0.000000 0.555016 -2.871572
v 0.000000 0.439943 -2.986644
v 0.000000 0.397824 -3.143836
v 0.000000 0.439943 -3.301028
v 0.000000 0.555016 -3.416100
v -0.451389 0.712207 -3.428634
v -0.445891 0.869399 -3.386875
v -0.430871 0.984472 -3.272787
v -0.410353 1.026591 -3.116940
v -0.389836 0.984472 -2.961093
v -0.374816 0.869399 -2.847005
v -0.369318 0.712207 -2.805246
v -0.374816 0.555016 -2.847005
v -0.389836 0.439943 -2.961093
v -0.410353 0.397824 -3.116940
v -0.430871 0.439943 -3.272787
v -0.445891 0.555016 -3.386875
v -0.895052 0.712207 -3.340384
v -0.884151 0.869399 -3.299699
v -0.854368 0.984472 -3.188549
v -0.813684 1.026591 -3.036712
v -0.773000 0.984472 -2.884877
v -0.743217 0.869399 -2.773726
v -0.732316 0.712207 -2.733042
v -0.743217 0.555016 -2.773726
v -0.773000 0.439943 -2.884877
v -0.813684 0.397824 -3.036712
v -0.854368 0.439943 -3.188549
v -0.884151 0.555016 -3.299699
v -1.323404 0.712207 -3.194978
v -1.307285 0.869399 -3.156065
v -1.263249 0.984472 -3.049752
v -1.203094 1.026591 -2.904526
v -1.142939 0.984472 -2.759299
v -1.098903 0.869399 -2.652986
v -1.082785 0.712207 -2.614073
v -1.098903 0.555016 -2.652986
v -1.142939 0.439943 -2.759299
v -1.203094 0.397824 -2.904526
v -1.263249 0.439943 -3.049752
v -1.307285 0.555016 -3.156065
v -1.729109 0.712207 -2.994906
v -1.708050 0.869399 -2.958430
v -1.650513 0.984472 -2.858774
v -1.571918 1.026591 -2.722642
v -1.493322 0.984472 -2.586510
v -1.435786 0.869399 -2.486855
v -1.414726 0.712207 -2.450378
v -1.435786 0.555016 -2.486855
v -1.493322 0.439943 -2.586510
v -1.571918 0.397824 -2.722642
v -1.650513 0.439943 -2.858774
v -1.708050 0.555016 -2.958430
v -2.105231 0.712207 -2.743590
v -2.079590 0.869399 -2.710175
v -2.009539 0.984472 -2.618881
v -1.913846 1.026591 -2.494173
v -1.818154 0.984472 -2.369464
v -1.748102 0.869399 -2.278171
v -1.722462 0.712207 -2.244756
v -1.748102 0.555016 -2.278171
v -1.818154 0.439943 -2.369464
v -1.913846 0.397824 -2.494173
v -2.009539 0.439943 -2.618881
v -2.079590 0.555016 -2.710175
v -2.445331 0.712207 -2.445330
v -2.415548 0.869399 -2.415547
v -2.334180 0.984472 -2.334178
v -2.223028 1.026591 -2.223027
v -2.111877 0.984472 -2.111876
v -2.030509 0.869399 -2.030508
v -2.000726 0.712207 -2.000725
v -2.030509 0.555016 -2.030508
v -2.111877 0.439943 -2.111876
v -2.223028 0.397824 -2.223027
v -2.334180 0.439943 -2.334178
v -2.415548 0.555016 -2.415547
v -2.743590 0.712207 -2.105231
v -2.710175 0.869399 -2.079590
v -2.618881 0.984472 -2.009539
v -2.494173 1.026591 -1.913846
v -2.369464 0.984472 -1.818154
v -2.278171 0.869399 -1.748102
v -2.244756 0.712207 -1.722462
v -2.278171 0.555016 -1.748102
v -2.369464 0.439943 -1.818154
v -2.494173 0.397824 -1.913846
v -2.618881 0.439943 -2.009539
v -2.710175 0.555016 -2.079590
v -2.994905 0.712207 -1.729111
v -2.958429 0.869399 -1.708051
v -2.858774 0.984472 -1.650514
v -2.722641 1.026591 -1.571919
v -2.586509 0.984472 -1.493323
v -2.486854 0.869399 -1.435787
v -2.450377 0.712207 -1.414727
v -2.486854 0.555016 -1.435787
v -2.586509 0.439943 -1.493323
v -2.722641 0.397824 -1.571919
v -2.858774 0.439943 -1.650514
v -2.958429 0.555016 -1.708051
v -3.194978 0.712207 -1.323404
v -3.156065 0.869399 -1.307285
v -3.049752 0.984472 -1.263249
v -2.904526 1.026591 -1.203094
v -2.759300 0.984472 -1.142939
v -2.652986 0.869399 -1.098903
v -2.614073 0.712207 -1.082784
v -2.652986 0.555016 -1.098903
v -2.759300 0.439943 -1.142939
v -2.904526 0.397824 -1.203094
v -3.049752 0.439943 -1.263249
v -3.156065 0.555016 -1.307285
v -3.340384 0.712207 -0.895053
v -3.299700 0.869399 -0.884151
v -3.188548 0.984472 -0.854369
v -3.036713 1.026591 -0.813684
v -2.884877 0.984472 -0.773000
v -2.773726 0.869399 -0.743217
v -2.733041 0.712207 -0.732316
v -2.773726 0.555016 -0.743217
v -2.884877 0.439943 -0.773000
v -3.036713 0.397824 -0.813684
v -3.188548 0.439943 -0.854369
v -3.299700 0.555016 -0.884151
v -3.428634 0.712207 -0.451389
v -3.386875 0.869399 -0.445891
v -3.272787 0.984472 -0.430871
v -3.116940 1.026591 -0.410353
v -2.961093 0.984472 -0.389836
v -2.847005 0.869399 -0.374816
v -2.805246 0.712207 -0.369318
v -2.847005 0.555016 -0.374816
v -2.961093 0.439943 -0.389836
v -3.116940 0.397824 -0.410353
v -3.272787 0.439943 -0.430871
v -3.386875 0.555016 -0.445891
v -3.458220 0.712207 -0.000000
v -3.416100 0.869399 -0.000000
v -3.301028 0.984472 -0.000000
v -3.143836 1.026591 -0.000000
v -2.986644 0.984472 -0.000000
v -2.871572 0.869399 -0.000000
v -2.829452 0.712207 -0.000000
v -2.871572 0.555016 -0.000000
v -2.986644 0.439943 -0.000000
v -3.143836 0.397824 -0.000000
v -3.301028 0.439943 -0.000000
v -3.416100 0.555016 -0.000000
v -3.428634 0.712207 0.451389
v -3.386875 0.869399 0.445891
v -3.272787 0.984472 0.430871
v -3.116940 1.026591 0.410353
v -2.961093 0.984472 0.389836
v -2.847005 0.869399 0.374816
v -2.805246 0.712207 0.369318
v -2.847005 0.555016 0.374816
v -2.961093 0.439943 0.389836
v -3.116940 0.397824 0.410353
v -3.272787 0.439943 0.430871
v -3.386875 0.555016 0.445891
v -3.340384 0.712207 0.895053
v -3.299700 0.869399 0.884151
v -3.188548 0.984472 0.854369
v -3.036712 1.026591 0.813684
v -2.884877 0.984472 0.773000
v -2.773726 0.869399 0.743217
v -2.733041 0.712207 0.732316
v -2.773726 0.555016 0.743217
v -2.884877 0.439943 0.773000
v -3.036712 0.397824 0.813684
v -3.188548 0.439943 0.854369
v -3.299700 0.555016 0.884151
v -3.194979 0.712207 1.323402
v -3.156066 0.869399 1.307284
v -3.049752 0.984472 1.263247
v -2.904526 1.026591 1.203093
v -2.759300 0.984472 1.142938
v -2.652987 0.869399 1.098902
v -2.614074 0.712207 1.082783
v -2.652987 0.555016 1.098902
v -2.759300 0.439943 1.142938
v -2.904526 0.397824 1.203093
v -3.049752 0.439943 1.263247
v -3.156066 0.555016 1.307284
v -2.994907 0.712207 1.729109
v -2.958430 0.869399 1.708050
v -2.858774 0.984472 1.650513
v -2.722642 1.026591 1.571917
v -2.586510 0.984472 1.493322
v -2.486855 0.869399 1.435786
v -2.450378 0.712207 1.414726
v -2.486855 0.555016 1.435786
v -2.586510 0.439943 1.493322
v -2.722642 0.397824 1.571917
v -2.858774 0.439943 1.650513
v -2.958430 0.555016 1.708050
v -2.743590 0.712207 2.105231
v -2.710175 0.869399 2.079590
v -2.618881 0.984472 2.009539
v -2.494173 1.026591 1.913846
v -2.369464 0.984472 1.818154
v -2.278171 0.869399 1.748102
v -2.244756 0.712207 1.722462
v -2.278171 0.555016 1.748102
v -2.369464 0.439943 1.818154
v -2.494173 0.397824 1.913846
v -2.618881 0.439943 2.009539
v -2.710175 0.555016 2.079590
v -2.445331 0.712207 2.445330
v -2.415548 0.869399 2.415547
v -2.334180 0.984472 2.334178
v -2.223028 1.026591 2.223027
v -2.111877 0.984472 2.111876
v -2.030509 0.869399 2.030507
v -2.000726 0.712207 2.000724
v -2.030509 0.555016 2.030507
v -2.111877 0.439943 2.111876
v -2.223028 0.397824 2.223027
v -2.334180 0.439943 2.334178
v -2.415548 0.555016 2.415547
v -2.105232 0.712207 2.743589
v -2.079592 0.869399 2.710174
v -2.009540 0.984472 2.618880
v -1.913847 1.026591 2.494172
v -1.818155 0.984472 2.369463
v -1.748103 0.869399 2.278170
v -1.722463 0.712207 2.244755
v -1.748103 0.555016 2.278170
v -1.818155 0.439943 2.369463
v -1.913847 0.397824 2.494172
v -2.009540 0.439943 2.618880
v -2.079592 0.555016 2.710174
v -1.729110 0.712207 2.994907
v -1.708050 0.869399 2.958430
v -1.650513 0.984472 2.858774
v -1.571918 1.026591 2.722642
v -1.493322 0.984472 2.586510
v -1.435785 0.869399 2.486854
v -1.414726 0.712207 2.450378
v -1.435785 0.555016 2.486854
v -1.493322 0.439943 2.586510
v -1.571918 0.397824 2.722642
v -1.650513 0.439943 2.858774
v -1.708050 0.555016 2.958430
v -1.323404 0.712207 3.194978
v -1.307285 0.869399 3.156065
v -1.263249 0.984472 3.049752
v -1.203094 1.026591 2.904526
v -1.142939 0.984472 2.759300
v -1.098903 0.869399 2.652986
v -1.082785 0.712207 2.614073
v -1.098903 0.555016 2.652986
v -1.142939 0.439943 2.759300
v -1.203094 0.397824 2.904526
v -1.263249 0.439943 3.049752
v -1.307285 0.555016 3.156065
v -0.895054 0.712207 3.340384
v -0.884153 0.869399 3.299699
v -0.854370 0.984472 3.188548
v -0.813686 1.026591 3.036712
v -0.773001 0.984472 2.884877
v -0.743218 0.869399 2.773725
v -0.732317 0.712207 2.733041
v -0.743218 0.555016 2.773725
v -0.773001 0.439943 2.884877
v -0.813686 0.397824 3.036712
v -0.854370 0.439943 3.188548
v -0.884153 0.555016 3.299699
v -0.451390 0.712207 3.428634
v -0.445893 0.869399 3.386874
v -0.430872 0.984472 3.272787
v -0.410355 1.026591 3.116940
v -0.389837 0.984472 2.961093
v -0.374817 0.869399 2.847005
v -0.369319 0.712207 2.805246
v -0.374817 0.555016 2.847005
v -0.389837 0.439943 2.961093
v -0.410355 0.397824 3.116940
v -0.430872 0.439943 3.272787
v -0.445893 0.555016 3.386874
v 0.000000 0.712207 3.458220
v 0.000000 0.869399 3.416101
v 0.000000 0.984472 3.301028
v 0.000000 1.026591 3.143836
v 0.000000 0.984472 2.986645
v 0.000000 0.869399 2.871572
v 0.000000 0.712207 2.829452
v 0.000000 0.555016 2.871572
v 0.000000 0.439943 2.986645
v 0.000000 0.397824 3.143836
v 0.000000 0.439943 3.301028
v 0.000000 0.555016 3.416101
v 0.451388 0.712207 3.428634
v 0.445890 0.869399 3.386875
v 0.430870 0.984472 3.272787
v 0.410352 1.026591 3.116940
v 0.389835 0.984472 2.961093
v 0.374815 0.869399 2.847005
v 0.369317 0.712207 2.805246
v 0.374815 0.555016 2.847005
v 0.389835 0.439943 2.961093
v 0.410352 0.397824 3.116940
v 0.430870 0.439943 3.272787
v 0.445890 0.555016 3.386875
v 0.895051 0.712207 3.340384
v 0.884150 0.869399 3.299700
v 0.854367 0.984472 3.188548
v 0.813683 1.026591 3.036713
v 0.772999 0.984472 2.884877
v 0.743216 0.869399 2.773726
v 0.732315 0.712207 2.733042
v 0.743216 0.555016 2.773726
v 0.772999 0.439943 2.884877
v 0.813683 0.397824 3.036713
v 0.854367 0.439943 3.188548
v 0.884150 0.555016 3.299700
v 1.323404 0.712207 3.194978
v 1.307286 0.869399 3.156065
v 1.263249 0.984472 3.049752
v 1.203094 1.026591 2.904525
v 1.142940 0.984472 2.759299
v 1.098904 0.869399 2.652986
v 1.082785 0.712207 2.614073
v 1.098904 0.555016 2.652986
v 1.142940 0.439943 2.759299
v 1.203094 0.397824 2.904525
v 1.263249 0.439943 3.049752
v 1.307286 0.555016 3.156065
v 1.729110 0.712207 2.994906
v 1.708050 0.869399 2.958430
v 1.650514 0.984472 2.858774
v 1.571918 1.026591 2.722642
v 1.493322 0.984472 2.586510
v 1.435786 0.869399 2.486854
v 1.414726 0.712207 2.450378
v 1.435786 0.555016 2.486854
v 1.493322 0.439943 2.586510
v 1.571918 0.397824 2.722642
v 1.650514 0.439943 2.858774
v 1.708050 0.555016 2.958430
v 2.105230 0.712207 2.743591
v 2.079589 0.869399 2.710175
v 2.009537 0.984472 2.618882
v 1.913846 1.026591 2.494174
v 1.818153 0.984472 2.369465
v 1.748101 0.869399 2.278172
v 1.722461 0.712207 2.244756
v 1.748101 0.555016 2.278172
v 1.818153 0.439943 2.369465
v 1.913846 0.397824 2.494174
v 2.009537 0.439943 2.618882
v 2.079589 0.555016 2.710175
v 2.445329 0.712207 2.445332
v 2.415546 0.869399 2.415549
v 2.334178 0.984472 2.334180
v 2.223027 1.026591 2.223029
v 2.111875 0.984472 2.111877
v 2.030507 0.869399 2.030509
v 2.000724 0.712207 2.000726
v 2.030507 0.555016 2.030509
v 2.111875 0.439943 2.111877
v 2.223027 0.397824 2.223029
v 2.334178 0.439943 2.334180
v 2.415546 0.555016 2.415549
v 2.743590 0.712207 2.105230
v 2.710175 0.869399 2.079590
v 2.618882 0.984472 2.009538
v 2.494173 1.026591 1.913846
v 2.369465 0.984472 1.818153
v 2.278171 0.869399 1.748102
v 2.244756 0.712207 1.722461
v 2.278171 0.555016 1.748102
v 2.369465 0.439943 1.818153
v 2.494173 0.397824 1.913846
v 2.618882 0.439943 2.009538
v 2.710175 0.555016 2.079590
v 2.994906 0.712207 1.729110
v 2.958429 0.869399 1.708051
v 2.858773 0.984472 1.650514
v 2.722642 1.026591 1.571918
v 2.586509 0.984472 1.493323
v 2.486854 0.869399 1.435786
v 2.450377 0.712207 1.414727
v 2.486854 0.555016 1.435786
v 2.586509 0.439943 1.493323
v 2.722642 0.397824 1.571918
v 2.858773 0.439943 1.650514
v 2.958429 0.555016 1.708051
v 3.194978 0.712207 1.323405
v 3.156065 0.869399 1.307286
v 3.049751 0.984472 1.263250
v 2.904526 1.026591 1.203095
v 2.759299 0.984472 1.142940
v 2.652986 0.869399 1.098904
v 2.614073 0.712207 1.082786
v 2.652986 0.555016 1.098904
v 2.759299 0.439943 1.142940
v 2.904526 0.397824 1.203095
v 3.049751 0.439943 1.263250
v 3.156065 0.555016 1.307286
v 3.340384 0.712207 0.895052
v 3.299699 0.869399 0.884151
v 3.188548 0.984472 0.854368
v 3.036713 1.026591 0.813684
v 2.884877 0.984472 0.773000
v 2.773726 0.869399 0.743217
v 2.733041 0.712207 0.732316
v 2.773726 0.555016 0.743217
v 2.884877 0.439943 0.773000
v 3.036713 0.397824 0.813684
v 3.188548 0.439943 0.854368
v 3.299699 0.555016 0.884151
v 3.428634 0.712207 0.451388
v 3.386875 0.869399 0.445891
v 3.272787 0.984472 0.430871
v 3.116940 1.026591 0.410353
v 2.961093 0.984472 0.389835
v 2.847005 0.869399 0.374815
v 2.805246 0.712207 0.369317
v 2.847005 0.555016 0.374815
v 2.961093 0.439943 0.389835
v 3.116940 0.397824 0.410353
v 3.272787 0.439943 0.430871
v 3.386875 0.555016 0.445891
v 0.000000 0.615855 -3.066993
v 0.000000 0.863376 -3.066993
v 0.320588 0.615855 -3.050192
v 0.320588 0.863376 -3.050192
v 0.637664 0.615855 -2.999972
v 0.637664 0.863376 -2.999972
v 0.947753 0.615855 -2.916883
v 0.947753 0.863376 -2.916883
v 1.247459 0.615855 -2.801837
v 1.247459 0.863376 -2.801837
v 1.533497 0.615855 -2.656094
v 1.533497 0.863376 -2.656094
v 1.802733 0.615855 -2.481249
v 1.802733 0.863376 -2.481249
v 2.052219 0.615855 -2.279220
v 2.052219 0.863376 -2.279220
v 2.279220 0.615855 -2.052219
v 2.279220 0.863376 -2.052219
v 2.481250 0.615855 -1.802733
v 2.481250 0.863376 -1.802733
v 2.656094 0.615855 -1.533497
v 2.656094 0.863376 -1.533497
v 2.801837 0.615855 -1.247458
v 2.801837 0.863376 -1.247458
v 2.916883 0.615855 -0.947753
v 2.916883 0.863376 -0.947753
v 2.999972 0.615855 -0.637664
v 2.999972 0.863376 -0.637664
v 3.050191 0.615855 -0.320588
v 3.050191 0.863376 -0.320588
v 3.066993 0.615855 0.000000
v 3.066993 0.863376 0.000000
v 3.050192 0.615855 0.320588
v 3.050192 0.863376 0.320588
v 2.999972 0.615855 0.637664
v 2.999972 0.863376 0.637664
v 2.916883 0.615855 0.947753
v 2.916883 0.863376 0.947753
v 2.801837 0.615855 1.247458
v 2.801837 0.863376 1.247458
v 2.656094 0.615855 1.533497
v 2.656094 0.863376 1.533497
v 2.481249 0.615855 1.802733
v 2.481249 0.863376 1.802733
v 2.279220 0.615855 2.052219
v 2.279220 0.863376 2.052219
v 2.052219 0.615855 2.279220
v 2.052219 0.863376 2.279220
v 1.802733 0.615855 2.481249
v 1.802733 0.863376 2.481249
v 1.533496 0.615855 2.656094
v 1.533496 0.863376 2.656094
v 1.247458 0.615855 2.801837
v 1.247458 0.863376 2.801837
v 0.947753 0.615855 2.916883
v 0.947753 0.863376 2.916883
v 0.637664 0.615855 2.999972
v 0.637664 0.863376 2.999972
v 0.320588 0.615855 3.050192
v 0.320588 0.863376 3.050192
v -0.000000 0.615855 3.066993
v -0.000000 0.863376 3.066993
v -0.320588 0.615855 3.050192
v -0.320588 0.863376 3.050192
v -0.637664 0.615855 2.999972
v -0.637664 0.863376 2.999972
v -0.947753 0.615855 2.916883
v -0.947753 0.863376 2.916883
v -1.247458 0.615855 2.801837
v -1.247458 0.863376 2.801837
v -1.533497 0.615855 2.656094
v -1.533497 0.863376 2.656094
v -1.802733 0.615855 2.481249
v -1.802733 0.863376 2.481249
v -2.052219 0.615855 2.279220
v -2.052219 0.863376 2.279220
v -2.279220 0.615855 2.052219
v -2.279220 0.863376 2.052219
v -2.481250 0.615855 1.802733
v -2.481250 0.863376 1.802733
v -2.656094 0.615855 1.533496
v -2.656094 0.863376 1.533496
v -2.801837 0.615855 1.247458
v -2.801837 0.863376 1.247458
v -2.916884 0.615855 0.947753
v -2.916884 0.863376 0.947753
v -2.999972 0.615855 0.637664
v -2.999972 0.863376 0.637664
v -3.050192 0.615855 0.320588
v -3.050192 0.863376 0.320588
v -3.066993 0.615855 0.000000
v -3.066993 0.863376 0.000000
v -3.050192 0.615855 -0.320588
v -3.050192 0.863376 -0.320588
v -2.999972 0.615855 -0.637664
v -2.999972 0.863376 -0.637664
v -2.916883 0.615855 -0.947753
v -2.916883 0.863376 -0.947753
v -2.801837 0.615855 -1.247458
v -2.801837 0.863376 -1.247458
v -2.656094 0.615855 -1.533497
v -2.656094 0.863376 -1.533497
v -2.481249 0.615855 -1.802733
v -2.481249 0.863376 -1.802733
v -2.279220 0.615855 -2.052219
v -2.279220 0.863376 -2.052219
v -2.052219 0.615855 -2.279220
v -2.052219 0.863376 -2.279220
v -1.802733 0.615855 -2.481249
v -1.802733 0.863376 -2.481249
v -1.533496 0.615855 -2.656094
v -1.533496 0.863376 -2.656094
v -1.247458 0.615855 -2.801837
v -1.247458 0.863376 -2.801837
v -0.947753 0.615855 -2.916883
v -0.947753 0.863376 -2.916883
v -0.637664 0.615855 -2.999972
v -0.637664 0.863376 -2.999972
v -0.320588 0.615855 -3.050192
v -0.320588 0.863376 -3.050192
v -0.000000 0.817555 -0.338277
v -0.000000 0.964888 -0.338277
v 0.035360 0.817555 -0.336424
v 0.035360 0.964888 -0.336424
v 0.070332 0.817555 -0.330885
v 0.070332 0.964888 -0.330885
v 0.104533 0.817555 -0.321721
v 0.104533 0.964888 -0.321721
v 0.137590 0.817555 -0.309032
v 0.137590 0.964888 -0.309032
v 0.169139 0.817555 -0.292957
v 0.169139 0.964888 -0.292957
v 0.198835 0.817555 -0.273672
v 0.198835 0.964888 -0.273672
v 0.226352 0.817555 -0.251389
v 0.226352 0.964888 -0.251389
v 0.251389 0.817555 -0.226352
v 0.251389 0.964888 -0.226352
v 0.273672 0.817555 -0.198834
v 0.273672 0.964888 -0.198834
v 0.292957 0.817555 -0.169139
v 0.292957 0.964888 -0.169139
v 0.309032 0.817555 -0.137590
v 0.309032 0.964888 -0.137590
v 0.321721 0.817555 -0.104533
v 0.321721 0.964888 -0.104533
v 0.330885 0.817555 -0.070332
v 0.330885 0.964888 -0.070332
v 0.336424 0.817555 -0.035360
v 0.336424 0.964888 -0.035360
v 0.338277 0.817555 0.000000
v 0.338277 0.964888 0.000000
v 0.336424 0.817555 0.035360
v 0.336424 0.964888 0.035360
v 0.330885 0.817555 0.070332
v 0.330885 0.964888 0.070332
v 0.321721 0.817555 0.104534
v 0.321721 0.964888 0.104534
v 0.309032 0.817555 0.137590
v 0.309032 0.964888 0.137590
v 0.292957 0.817555 0.169139
v 0.292957 0.964888 0.169139
v 0.273672 0.817555 0.198835
v 0.273672 0.964888 0.198835
v 0.251389 0.817555 0.226352
v 0.251389 0.964888 0.226352
v 0.226352 0.817555 0.251389
v 0.226352 0.964888 0.251389
v 0.198834 0.817555 0.273672
v 0.198834 0.964888 0.273672
v 0.169139 0.817555 0.292957
v 0.169139 0.964888 0.292957
v 0.137590 0.817555 0.309032
v 0.137590 0.964888 0.309032
v 0.104533 0.817555 0.321721
v 0.104533 0.964888 0.321721
v 0.070332 0.817555 0.330885
v 0.070332 0.964888 0.330885
v 0.035360 0.817555 0.336424
v 0.035360 0.964888 0.336424
v 0.000000 0.817555 0.338277
v 0.000000 0.964888 0.338277
v -0.035360 0.817555 0.336424
v -0.035360 0.964888 0.336424
v -0.070332 0.817555 0.330885
v -0.070332 0.964888 0.330885
v -0.104533 0.817555 0.321721
v -0.104533 0.964888 0.321721
v -0.137590 0.817555 0.309032
v -0.137590 0.964888 0.309032
v -0.169139 0.817555 0.292957
v -0.169139 0.964888 0.292957
v -0.198835 0.817555 0.273672
v -0.198835 0.964888 0.273672
v -0.226352 0.817555 0.251389
v -0.226352 0.964888 0.251389
v -0.251389 0.817555 0.226352
v -0.251389 0.964888 0.226352
v -0.273672 0.817555 0.198834
v -0.273672 0.964888 0.198834
v -0.292957 0.817555 0.169139
v -0.292957 0.964888 0.169139
v -0.309032 0.817555 0.137590
v -0.309032 0.964888 0.137590
v -0.321721 0.817555 0.104534
v -0.321721 0.964888 0.104534
v -0.330885 0.817555 0.070332
v -0.330885 0.964888 0.070332
v -0.336424 0.817555 0.035360
v -0.336424 0.964888 0.035360
v -0.338278 0.817555 0.000000
v -0.338278 0.964888 0.000000
v -0.336424 0.817555 -0.035360
v -0.336424 0.964888 -0.035360
v -0.330885 0.817555 -0.070332
v -0.330885 0.964888 -0.070332
v -0.321721 0.817555 -0.104533
v -0.321721 0.964888 -0.104533
v -0.309032 0.817555 -0.137590
v -0.309032 0.964888 -0.137590
v -0.292957 0.817555 -0.169139
v -0.292957 0.964888 -0.169139
v -0.273672 0.817555 -0.198835
v -0.273672 0.964888 -0.198835
v -0.251389 0.817555 -0.226352
v -0.251389 0.964888 -0.226352
v -0.226352 0.817555 -0.251389
v -0.226352 0.964888 -0.251389
v -0.198835 0.817555 -0.273672
v -0.198835 0.964888 -0.273672
v -0.169139 0.817555 -0.292957
v -0.169139 0.964888 -0.292957
v -0.137590 0.817555 -0.309032
v -0.137590 0.964888 -0.309032
v -0.104533 0.817555 -0.321721
v -0.104533 0.964888 -0.321721
v -0.070332 0.817555 -0.330885
v -0.070332 0.964888 -0.330885
v -0.035360 0.817555 -0.336424
v -0.035360 0.964888 -0.336424
v 0.000000 0.000000 -1.000000
v -0.195090 0.000000 -0.980785
v -0.382683 0.000000 -0.923879
v -0.555570 0.000000 -0.831470
v -0.707107 0.000000 -0.707107
v -0.831470 0.000000 -0.555570
v -0.923879 0.000000 -0.382683
v -0.980785 0.000000 -0.195090
v -1.000000 0.000000 0.000000
v -0.980785 0.000000 0.195090
v -0.923880 0.000000 0.382683
v -0.831470 0.000000 0.555570
v -0.707107 0.000000 0.707107
v -0.555570 0.000000 0.831470
v -0.382683 0.000000 0.923880
v -0.195090 0.000000 0.980785
v -0.000000 0.000000 1.000000
v 0.195090 0.000000 0.980785
v 0.382683 0.000000 0.923880
v 0.555570 0.000000 0.831470
v 0.707107 0.000000 0.707107
v 0.831470 0.000000 0.555570
v 0.923879 0.000000 0.382684
v 0.980785 0.000000 0.195090
v 1.000000 0.000000 -0.000000
v 0.980785 0.000000 -0.195090
v 0.923880 0.000000 -0.382684
v 0.831470 0.000000 -0.555570
v 0.707107 0.000000 -0.707107
v 0.555570 0.000000 -0.831470
v 0.382684 0.000000 -0.923880
v 0.195090 0.000000 -0.980785
v 0.000000 1.002120 -2.663625
v -0.206673 1.002120 -2.643269
v -0.405404 1.002120 -2.582985
v -0.588555 1.002120 -2.485088
v -0.749089 1.002120 -2.353342
v -0.880835 1.002120 -2.192808
v 0.206673 0.845339 -2.643269
v 0.405404 0.845339 -2.582985
v 0.588555 0.845339 -2.485088
v 0.749089 0.845339 -2.353342
v 0.880836 0.845339 -2.192808
v -0.206673 1.002120 -0.565237
v 0.000000 1.002120 -0.622885
v 0.206673 1.002120 -0.565237
v 0.206673 0.845339 -0.565237
v 0.000000 0.845339 -0.622885
v -0.206673 0.845339 -0.565237
v -0.880835 0.845339 -2.192808
v -0.749089 0.845339 -2.353342
v -0.588555 0.845339 -2.485088
v -0.405404 0.845339 -2.582985
v -0.206673 0.845339 -2.643269
v 0.000000 0.845339 -2.663625
v 0.880836 1.002120 -2.192808
v 0.749089 1.002120 -2.353342
v 0.588555 1.002120 -2.485088
v 0.405404 1.002120 -2.582985
v 0.206673 1.002120 -2.643269
v 2.379433 0.957916 1.237142
v 2.454386 0.957916 1.043467
v 2.490114 0.957916 0.838890
v 2.485246 0.957916 0.631274
v 2.439966 0.957916 0.428597
v 2.356017 0.957916 0.238648
v 2.268137 0.801135 1.412474
v 2.124772 0.801135 1.562724
v 1.954851 0.801135 1.682117
v 1.764902 0.801135 1.766067
v 1.562225 0.801135 1.811346
v 0.599262 0.957916 0.107126
v 0.557602 0.957916 0.317605
v 0.413012 0.957916 0.476133
v 0.413012 0.801135 0.476133
v 0.557602 0.801135 0.317605
v 0.599262 0.801135 0.107126
v 2.356017 0.801135 0.238648
v 2.439966 0.801135 0.428597
v 2.485246 0.801135 0.631274
v 2.490114 0.801135 0.838890
v 2.454386 0.801135 1.043467
v 2.379433 0.801135 1.237142
v 1.562225 0.957916 1.811346
v 1.764902 0.957916 1.766067
v 1.954851 0.957916 1.682117
v 2.124772 0.957916 1.562724
v 2.268137 0.957916 1.412474
vn -0.0000 -1.0000 -0.0000
vn -0.0000 1.0000 -0.0000
vn 0.9942 -0.0000 -0.1074
vn 0.7670 -0.0000 -0.6417
vn -0.6444 -0.0000 0.7647
vn 0.9542 -0.0000 -0.2993
vn 0.6271 -0.0000 -0.7790
vn -0.9472 -0.0000 0.3207
vn 0.8774 -0.0000 -0.4797
vn 0.4630 -0.0000 -0.8863
vn 0.2044 -0.0000 0.9789
vn 0.2812 -0.0000 -0.9596
vn -0.8367 -0.0000 -0.5477
vn 0.0886 -0.0000 -0.9961
vn 0.9596 -0.0000 0.2812
vn 0.9961 -0.0000 0.0886
vn 0.9640 0.2583 -0.0632
vn 0.7063 0.7063 -0.0463
vn 0.2588 0.9658 -0.0170
vn -0.2588 0.9658 0.0170
vn -0.7063 0.7063 0.0463
vn -0.9640 0.2583 0.0632
vn -0.9640 -0.2583 0.0632
vn -0.7063 -0.7063 0.0463
vn -0.2588 -0.9658 0.0170
vn 0.2588 -0.9658 -0.0170
vn 0.7063 -0.7063 -0.0463
vn 0.9640 -0.2583 -0.0632
vn 0.9475 0.2583 -0.1885
vn 0.6943 0.7063 -0.1381
vn 0.2544 0.9658 -0.0506
vn -0.2544 0.9658 0.0506
vn -0.6943 0.7063 0.1381
vn -0.9475 0.2583 0.1885
vn -0.9475 -0.2583 0.1885
vn -0.6943 -0.7063 0.1381
vn -0.2544 -0.9658 0.0506
vn 0.2544 -0.9658 -0.0506
vn 0.6943 -0.7063 -0.1381
vn 0.9475 -0.2583 -0.1885
vn 0.9148 0.2583 -0.3105
vn 0.6703 0.7063 -0.2275
vn 0.2456 0.9658 -0.0834
vn -0.2456 0.9658 0.0834
vn -0.6703 0.7063 0.2275
vn -0.9148 0.2583 0.3105
vn -0.9148 -0.2583 0.3105
vn -0.6703 -0.7063 0.2275
vn -0.2456 -0.9658 0.0834
vn 0.2456 -0.9658 -0.0834
vn 0.6703 -0.7063 -0.2275
vn 0.9148 -0.2583 -0.3105
vn 0.8664 0.2583 -0.4273
vn 0.6349 0.7063 -0.3131
vn 0.2326 0.9658 -0.1147
vn -0.2326 0.9658 0.1147
vn -0.6349 0.7063 0.3131
vn -0.8664 0.2583 0.4273
vn -0.8664 -0.2583 0.4273
vn -0.6349 -0.7063 0.3131
vn -0.2326 -0.9658 0.1147
vn 0.2326 -0.9658 -0.1147
vn 0.6349 -0.7063 -0.3131
vn 0.8664 -0.2583 -0.4273
vn 0.8033 0.2583 -0.5367
vn 0.5886 0.7063 -0.3933
vn 0.2156 0.9658 -0.1441
vn -0.2156 0.9658 0.1441
vn -0.5886 0.7063 0.3933
vn -0.8033 0.2583 0.5367
vn -0.8033 -0.2583 0.5367
vn -0.5886 -0.7063 0.3933
vn -0.2156 -0.9658 0.1441
vn 0.2156 -0.9658 -0.1441
vn 0.5886 -0.7063 -0.3933
vn 0.8033 -0.2583 -0.5367
vn 0.7263 0.2583 -0.6370
vn 0.5322 0.7063 -0.4667
vn 0.1950 0.9658 -0.1710
vn -0.1950 0.9658 0.1710
vn -0.5322 0.7063 0.4667
vn -0.7263 0.2583 0.6370
vn -0.7263 -0.2583 0.6370
vn -0.5322 -0.7063 0.4667
vn -0.1950 -0.9658 0.1710
vn 0.1950 -0.9658 -0.1710
vn 0.5322 -0.7063 -0.4667
vn 0.7263 -0.2583 -0.6370
vn 0.6370 0.2583 -0.7263
vn 0.4667 0.7063 -0.5322
vn 0.1710 0.9658 -0.1950
vn -0.1710 0.9658 0.1950
vn -0.4667 0.7063 0.5322
vn -0.6370 0.2583 0.7263
vn -0.6370 -0.2583 0.7263
vn -0.4667 -0.7063 0.5322
vn -0.1710 -0.9658 0.1950
vn 0.1710 -0.9658 -0.1950
vn 0.4667 -0.7063 -0.5322
vn 0.6370 -0.2583 -0.7263
vn 0.5367 0.2583 -0.8033
vn 0.3933 0.7064 -0.5886
vn 0.1441 0.9658 -0.2156
vn -0.1441 0.9658 0.2156
vn -0.3933 0.7063 0.5886
vn -0.5367 0.2583 0.8033
vn -0.5367 -0.2583 0.8033
vn -0.3933 -0.7063 0.5886
vn -0.1441 -0.9658 0.2156
vn 0.1441 -0.9658 -0.2156
vn 0.3933 -0.7064 -0.5886
vn 0.5367 -0.2583 -0.8033
vn 0.4273 0.2583 -0.8664
vn 0.3131 0.7063 -0.6349
vn 0.1147 0.9658 -0.2326
vn -0.1147 0.9658 0.2326
vn -0.3131 0.7063 0.6349
vn -0.4273 0.2583 0.8664
vn -0.4273 -0.2583 0.8664
vn -0.3131 -0.7063 0.6349
vn -0.1147 -0.9658 0.2326
vn 0.1147 -0.9658 -0.2326
vn 0.3131 -0.7063 -0.6349
vn 0.4273 -0.2583 -0.8664
vn 0.3105 0.2583 -0.9148
vn 0.2275 0.7063 -0.6703
vn 0.0834 0.9658 -0.2456
vn -0.0834 0.9658 0.2456
vn -0.2275 0.7063 0.6703
vn -0.3105 0.2583 0.9148
vn -0.3105 -0.2583 0.9148
vn -0.2275 -0.7063 0.6703
vn -0.0834 -0.9658 0.2456
vn 0.0834 -0.9658 -0.2456
vn 0.2275 -0.7064 -0.6703
vn 0.3105 -0.2583 -0.9148
vn 0.1885 0.2583 -0.9475
vn 0.1381 0.7063 -0.6943
vn 0.0506 0.9658 -0.2544
vn -0.0506 0.9658 0.2544
vn -0.1381 0.7063 0.6943
vn -0.1885 0.2583 0.9475
vn -0.1885 -0.2583 0.9475
vn -0.1381 -0.7063 0.6943
vn -0.0506 -0.9658 0.2544
vn 0.0506 -0.9658 -0.2544
vn 0.1381 -0.7063 -0.6943
vn 0.1885 -0.2583 -0.9475
vn 0.0632 0.2583 -0.9640
vn 0.0463 0.7063 -0.7063
vn 0.0170 0.9658 -0.2588
vn -0.0170 0.9658 0.2588
vn -0.0463 0.7063 0.7063
vn -0.0632 0.2583 0.9640
vn -0.0632 -0.2583 0.9640
vn -0.0463 -0.7063 0.7063
vn -0.0170 -0.9658 0.2588
vn 0.0170 -0.9658 -0.2588
vn 0.0463 -0.7063 -0.7063
vn 0.0632 -0.2583 -0.9640
vn -0.0632 0.2583 -0.9640
vn -0.0463 0.7063 -0.7063
vn -0.0170 0.9658 -0.2588
vn 0.0170 0.9658 0.2588
vn 0.0463 0.7063 0.7063
vn 0.0632 0.2583 0.9640
vn 0.0632 -0.2583 0.9640
vn 0.0463 -0.7063 0.7063
vn 0.0170 -0.9658 0.2588
vn -0.0170 -0.9658 -0.2588
vn -0.0463 -0.7063 -0.7063
vn -0.0632 -0.2583 -0.9640
vn -0.1885 0.2583 -0.9475
vn -0.1381 0.7063 -0.6943
vn -0.0506 0.9658 -0.2544
vn 0.0506 0.9658 0.2544
vn 0.1381 0.7063 0.6943
vn 0.1885 0.2583 0.9475
vn 0.1885 -0.2583 0.9475
vn 0.1381 -0.7063 0.6943
vn 0.0506 -0.9658 0.2544
vn -0.0506 -0.9658 -0.2544
vn -0.1381 -0.7063 -0.6943
vn -0.1885 -0.2583 -0.9475
vn -0.3105 0.2583 -0.9148
vn -0.2275 0.7063 -0.6703
vn -0.0834 0.9658 -0.2456
vn 0.0834 0.9658 0.2456
vn 0.2275 0.7063 0.6703
vn 0.3105 0.2583 0.9148
vn 0.3105 -0.2583 0.9148
vn 0.2275 -0.7063 0.6703
vn 0.0834 -0.9658 0.2456
vn -0.0834 -0.9658 -0.2456
vn -0.2275 -0.7063 -0.6703
vn -0.3105 -0.2583 -0.9148
vn -0.4273 0.2583 -0.8664
vn -0.3131 0.7063 -0.6349
vn -0.1147 0.9658 -0.2326
vn 0.1147 0.9658 0.2326
vn 0.3131 0.7063 0.6349
vn 0.4273 0.2583 0.8664
vn 0.4273 -0.2583 0.8664
vn 0.3131 -0.7063 0.6349
vn 0.1147 -0.9658 0.2326
vn -0.1147 -0.9658 -0.2326
vn -0.3131 -0.7063 -0.6349
vn -0.4273 -0.2583 -0.8664
vn -0.5367 0.2583 -0.8033
vn -0.3933 0.7063 -0.5886
vn -0.1441 0.9658 -0.2156
vn 0.1441 0.9658 0.2156
vn 0.3933 0.7063 0.5886
vn 0.5367 0.2583 0.8033
vn 0.5367 -0.2583 0.8033
vn 0.3933 -0.7063 0.5886
vn 0.1441 -0.9658 0.2156
vn -0.1441 -0.9658 -0.2156
vn -0.3933 -0.7063 -0.5886
vn -0.5367 -0.2583 -0.8033
vn -0.6370 0.2583 -0.7263
vn -0.4667 0.7063 -0.5322
vn -0.1710 0.9658 -0.1950
vn 0.1710 0.9658 0.1950
vn 0.4667 0.7063 0.5322
vn 0.6370 0.2583 0.7263
vn 0.6370 -0.2583 0.7263
vn 0.4667 -0.7063 0.5322
vn 0.1710 -0.9658 0.1950
vn -0.1710 -0.9658 -0.1950
vn -0.4667 -0.7063 -0.5322
vn -0.6370 -0.2583 -0.7263
vn -0.7263 0.2583 -0.6370
vn -0.5322 0.7063 -0.4667
vn -0.1950 0.9658 -0.1710
vn 0.1950 0.9658 0.1710
vn 0.5322 0.7063 0.4667
vn 0.7263 0.2583 0.6370
vn 0.7263 -0.2583 0.6370
vn 0.5322 -0.7063 0.4667
vn 0.1950 -0.9658 0.1710
vn -0.1950 -0.9658 -0.1710
vn -0.5322 -0.7063 -0.4667
vn -0.7263 -0.2583 -0.6370
vn -0.8033 0.2583 -0.5367
vn -0.5886 0.7063 -0.3933
vn -0.2156 0.9658 -0.1441
vn 0.2156 0.9658 0.1441
vn 0.5886 0.7063 0.3933
vn 0.8033 0.2583 0.5367
vn 0.8033 -0.2583 0.5367
vn 0.5886 -0.7063 0.3933
vn 0.2156 -0.9658 0.1441
vn -0.2156 -0.9658 -0.1441
vn -0.5886 -0.7063 -0.3933
vn -0.8033 -0.2583 -0.5367
vn -0.8664 0.2583 -0.4273
vn -0.6349 0.7063 -0.3131
vn -0.2326 0.9658 -0.1147
vn 0.2326 0.9658 0.1147
vn 0.6349 0.7063 0.3131
vn 0.8664 0.2583 0.4273
vn 0.8664 -0.2583 0.4273
vn 0.6349 -0.7063 0.3131
vn 0.2326 -0.9658 0.1147
vn -0.2326 -0.9658 -0.1147
vn -0.6349 -0.7063 -0.3131
vn -0.8664 -0.2583 -0.4273
vn -0.9148 0.2583 -0.3105
vn -0.6703 0.7063 -0.2275
vn -0.2456 0.9658 -0.0834
vn 0.2456 0.9658 0.0834
vn 0.6703 0.7063 0.2275
vn 0.9148 0.2583 0.3105
vn 0.9148 -0.2583 0.3105
vn 0.6703 -0.7063 0.2275
vn 0.2456 -0.9658 0.0834
vn -0.2456 -0.9658 -0.0834
vn -0.6703 -0.7063 -0.2275
vn -0.9148 -0.2583 -0.3105
vn -0.9475 0.2583 -0.1885
vn -0.6943 0.7063 -0.1381
vn -0.2544 0.9658 -0.0506
vn 0.2544 0.9658 0.0506
vn 0.6943 0.7063 0.1381
vn 0.9475 0.2583 0.1885
vn 0.9475 -0.2583 0.1885
vn 0.6943 -0.7063 0.1381
vn 0.2544 -0.9658 0.0506
vn -0.2544 -0.9658 -0.0506
vn -0.6943 -0.7063 -0.1381
vn -0.9475 -0.2583 -0.1885
vn -0.9640 0.2583 -0.0632
vn -0.7063 0.7063 -0.0463
vn -0.2588 0.9658 -0.0170
vn 0.2588 0.9658 0.0170
vn 0.7063 0.7063 0.0463
vn 0.9640 0.2583 0.0632
vn 0.9640 -0.2583 0.0632
vn 0.7063 -0.7063 0.0463
vn 0.2588 -0.9658 0.0170
vn -0.2588 -0.9658 -0.0170
vn -0.7063 -0.7063 -0.0463
vn -0.9640 -0.2583 -0.0632
vn -0.6349 0.7064 0.3131
vn -0.6349 -0.7064 0.3131
vn -0.5886 0.7064 0.3933
vn 0.3933 0.7063 -0.5886
vn 0.3933 -0.7063 -0.5886
vn 0.2275 -0.7063 -0.6703
vn 0.3131 0.7064 0.6349
vn 0.5886 -0.7064 0.3933
vn 0.0523 -0.0000 -0.9986
vn 0.1564 -0.0000 -0.9877
vn 0.2588 -0.0000 -0.9659
vn 0.3584 -0.0000 -0.9336
vn 0.4540 -0.0000 -0.8910
vn 0.5446 -0.0000 -0.8387
vn 0.6293 -0.0000 -0.7771
vn 0.7071 -0.0000 -0.7071
vn 0.7771 -0.0000 -0.6293
vn 0.8387 -0.0000 -0.5446
vn 0.8910 -0.0000 -0.4540
vn 0.9336 -0.0000 -0.3584
vn 0.9659 -0.0000 -0.2588
vn 0.9877 -0.0000 -0.1564
vn 0.9986 -0.0000 -0.0523
vn 0.9986 -0.0000 0.0523
vn 0.9877 -0.0000 0.1564
vn 0.9659 -0.0000 0.2588
vn 0.9336 -0.0000 0.3584
vn 0.8910 -0.0000 0.4540
vn 0.8387 -0.0000 0.5446
vn 0.7771 -0.0000 0.6293
vn 0.7071 -0.0000 0.7071
vn 0.6293 -0.0000 0.7771
vn 0.5446 -0.0000 0.8387
vn 0.4540 -0.0000 0.8910
vn 0.3584 -0.0000 0.9336
vn 0.2588 -0.0000 0.9659
vn 0.1564 -0.0000 0.9877
vn 0.0523 -0.0000 0.9986
vn -0.0523 -0.0000 0.9986
vn -0.1564 -0.0000 0.9877
vn -0.2588 -0.0000 0.9659
vn -0.3584 -0.0000 0.9336
vn -0.4540 -0.0000 0.8910
vn -0.5446 -0.0000 0.8387
vn -0.6293 -0.0000 0.7771
vn -0.7071 -0.0000 0.7071
vn -0.7771 -0.0000 0.6293
vn -0.8387 -0.0000 0.5446
vn -0.8910 -0.0000 0.4540
vn -0.9336 -0.0000 0.3584
vn -0.9659 -0.0000 0.2588
vn -0.9877 -0.0000 0.1564
vn -0.9986 -0.0000 0.0523
vn -0.9986 -0.0000 -0.0523
vn -0.9877 -0.0000 -0.1564
vn -0.9659 -0.0000 -0.2588
vn -0.9336 -0.0000 -0.3584
vn -0.8910 -0.0000 -0.4540
vn -0.8387 -0.0000 -0.5446
vn -0.7771 -0.0000 -0.6293
vn -0.7071 -0.0000 -0.7071
vn -0.6293 -0.0000 -0.7771
vn -0.5446 -0.0000 -0.8387
vn -0.4540 -0.0000 -0.8910
vn -0.3584 -0.0000 -0.9336
vn -0.2588 -0.0000 -0.9659
vn -0.1564 -0.0000 -0.9877
vn -0.0523 -0.0000 -0.9986
vn -0.4714 -0.0000 0.8819
vn 0.0980 -0.0000 0.9952
vn -0.2687 -0.0000 -0.9632
vn -0.2903 -0.0000 0.9569
vn 0.2903 -0.0000 0.9569
vn 0.2687 -0.0000 -0.9632
vn -0.0980 -0.0000 0.9952
vn 0.4714 -0.0000 0.8819
vn -0.9239 -0.0000 -0.3827
vn 0.6344 -0.0000 0.7730
vn 0.9239 -0.0000 -0.3827
vn 0.7730 -0.0000 0.6344
vn -0.7730 -0.0000 0.6344
vn -0.6344 -0.0000 0.7730
vn -0.5749 -0.0000 -0.8182
vn -0.9326 -0.0000 -0.3609
vn 0.9810 -0.0000 0.1942
vn -0.7235 -0.0000 -0.6903
vn -0.9851 -0.0000 -0.1720
vn 0.7388 -0.0000 0.6739
vn -0.8443 -0.0000 -0.5359
vn -0.9997 -0.0000 0.0234
vn 0.7579 -0.0000 -0.6523
vn -0.9759 -0.0000 0.2180
vn -0.0747 -0.0000 0.9972
vn -0.9147 -0.0000 0.4042
vn -0.2180 -0.0000 -0.9759
vn -0.4042 -0.0000 -0.9147
vt 0.000000 0.000000
vt 0.500000 0.500000
vt 0.520833 0.500000
vt 0.520833 0.583333
vt 0.500000 0.583333
vt 0.520833 0.666667
vt 0.500000 0.666667
vt 0.520833 0.750000
vt 0.500000 0.750000
vt 0.520833 0.833333
vt 0.500000 0.833333
vt 0.520833 0.916667
vt 0.500000 0.916667
vt 0.520833 1.000000
vt 0.500000 1.000000
vt 0.500000 0.000000
vt 0.520833 0.000000
vt 0.520833 0.083333
vt 0.500000 0.083333
vt 0.520833 0.166667
vt 0.500000 0.166667
vt 0.520833 0.250000
vt 0.500000 0.250000
vt 0.520833 0.333333
vt 0.500000 0.333333
vt 0.520833 0.416667
vt 0.500000 0.416667
vt 0.541667 0.500000
vt 0.541667 0.583333
vt 0.541667 0.666667
vt 0.541667 0.750000
vt 0.541667 0.833333
vt 0.541667 0.916667
vt 0.541667 1.000000
vt 0.541667 0.000000
vt 0.541667 0.083333
vt 0.541667 0.166667
vt 0.541667 0.250000
vt 0.541667 0.333333
vt 0.541667 0.416667
vt 0.562500 0.500000
vt 0.562500 0.583333
vt 0.562500 0.666667
vt 0.562500 0.750000
vt 0.562500 0.833333
vt 0.562500 0.916667
vt 0.562500 1.000000
vt 0.562500 0.000000
vt 0.562500 0.083333
vt 0.562500 0.166667
vt 0.562500 0.250000
vt 0.562500 0.333333
vt 0.562500 0.416667
vt 0.583333 0.500000
vt 0.583333 0.583333
vt 0.583333 0.666667
vt 0.583333 0.750000
vt 0.583333 0.833333
vt 0.583333 0.916667
vt 0.583333 1.000000
vt 0.583333 0.000000
vt 0.583333 0.083333
vt 0.583333 0.166667
vt 0.583333 0.250000
vt 0.583333 0.333333
vt 0.583333 0.416667
vt 0.604167 0.500000
vt 0.604167 0.583333
vt 0.604167 0.666667
vt 0.604167 0.750000
vt 0.604167 0.833333
vt 0.604167 0.916667
vt 0.604167 1.000000
vt 0.604167 0.000000
vt 0.604167 0.083333
vt 0.604167 0.166667
vt 0.604167 0.250000
vt 0.604167 0.333333
vt 0.604167 0.416667
vt 0.625000 0.500000
vt 0.625000 0.583333
vt 0.625000 0.666667
vt 0.625000 0.750000
vt 0.625000 0.833333
vt 0.625000 0.916667
vt 0.625000 1.000000
vt 0.625000 0.000000
vt 0.625000 0.083333
vt 0.625000 0.166667
vt 0.625000 0.250000
vt 0.625000 0.333333
vt 0.625000 0.416667
vt 0.645833 0.500000
vt 0.645833 0.583333
vt 0.645833 0.666667
vt 0.645833 0.750000
vt 0.645833 0.833333
vt 0.645833 0.916667
vt 0.645833 1.000000
vt 0.645833 0.000000
vt 0.645833 0.083333
vt 0.645833 0.166667
vt 0.645833 0.250000
vt 0.645833 0.333333
vt 0.645833 0.416667
vt 0.666667 0.500000
vt 0.666667 0.583333
vt 0.666667 0.666667
vt 0.666667 0.750000
vt 0.666667 0.833333
vt 0.666667 0.916667
vt 0.666667 1.000000
vt 0.666667 0.000000
vt 0.666667 0.083333
vt 0.666667 0.166667
vt 0.666667 0.250000
vt 0.666667 0.333333
vt 0.666667 0.416667
vt 0.687500 0.500000
vt 0.687500 0.583333
vt 0.687500 0.666667
vt 0.687500 0.750000
vt 0.687500 0.833333
vt 0.687500 0.916667
vt 0.687500 1.000000
vt 0.687500 0.000000
vt 0.687500 0.083333
vt 0.687500 0.166667
vt 0.687500 0.250000
vt 0.687500 0.333333
vt 0.687500 0.416667
vt 0.708333 0.500000
vt 0.708333 0.583333
vt 0.708333 0.666667
vt 0.708333 0.750000
vt 0.708333 0.833333
vt 0.708333 0.916667
vt 0.708333 1.000000
vt 0.708333 0.000000
vt 0.708333 0.083333
vt 0.708333 0.166667
vt 0.708333 0.250000
vt 0.708333 0.333333
vt 0.708333 0.416667
vt 0.729167 0.500000
vt 0.729167 0.583333
vt 0.729167 0.666667
vt 0.729167 0.750000
vt 0.729167 0.833333
vt 0.729167 0.916667
vt 0.729167 1.000000
vt 0.729167 0.000000
vt 0.729167 0.083333
vt 0.729167 0.166667
vt 0.729167 0.250000
vt 0.729167 0.333333
vt 0.729167 0.416667
vt 0.750000 0.500000
vt 0.750000 0.583333
vt 0.750000 0.666667
vt 0.750000 0.750000
vt 0.750000 0.833333
vt 0.750000 0.916667
vt 0.750000 1.000000
vt 0.750000 0.000000
vt 0.750000 0.083333
vt 0.750000 0.166667
vt 0.750000 0.250000
vt 0.750000 0.333333
vt 0.750000 0.416667
vt 0.770833 0.500000
vt 0.770833 0.583333
vt 0.770833 0.666667
vt 0.770833 0.750000
vt 0.770833 0.833333
vt 0.770833 0.916667
vt 0.770833 1.000000
vt 0.770833 0.000000
vt 0.770833 0.083333
vt 0.770833 0.166667
vt 0.770833 0.250000
vt 0.770833 0.333333
vt 0.770833 0.416667
vt 0.791667 0.500000
vt 0.791667 0.583333
vt 0.791667 0.666667
vt 0.791667 0.750000
vt 0.791667 0.833333
vt 0.791667 0.916667
vt 0.791667 1.000000
vt 0.791667 0.000000
vt 0.791667 0.083333
vt 0.791667 0.166667
vt 0.791667 0.250000
vt 0.791667 0.333333
vt 0.791667 0.416667
vt 0.812500 0.500000
vt 0.812500 0.583333
vt 0.812500 0.666667
vt 0.812500 0.750000
vt 0.812500 0.833333
vt 0.812500 0.916667
vt 0.812500 1.000000
vt 0.812500 0.000000
vt 0.812500 0.083333
vt 0.812500 0.166667
vt 0.812500 0.250000
vt 0.812500 0.333333
vt 0.812500 0.416667
vt 0.833333 0.500000
vt 0.833333 0.583333
vt 0.833333 0.666667
vt 0.833333 0.750000
vt 0.833333 0.833333
vt 0.833333 0.916667
vt 0.833333 1.000000
vt 0.833333 0.000000
vt 0.833333 0.083333
vt 0.833333 0.166667
vt 0.833333 0.250000
vt 0.833333 0.333333
vt 0.833333 0.416667
vt 0.854167 0.500000
vt 0.854167 0.583333
vt 0.854167 0.666667
vt 0.854167 0.750000
vt 0.854167 0.833333
vt 0.854167 0.916667
vt 0.854167 1.000000
vt 0.854167 0.000000
vt 0.854167 0.083333
vt 0.854167 0.166667
vt 0.854167 0.250000
vt 0.854167 0.333333
vt 0.854167 0.416667
vt 0.875000 0.500000
vt 0.875000 0.583333
vt 0.875000 0.666667
vt 0.875000 0.750000
vt 0.875000 0.833333
vt 0.875000 0.916667
vt 0.875000 1.000000
vt 0.875000 0.000000
vt 0.875000 0.083333
vt 0.875000 0.166667
vt 0.875000 0.250000
vt 0.875000 0.333333
vt 0.875000 0.416667
vt 0.895833 0.500000
vt 0.895833 0.583333
vt 0.895833 0.666667
vt 0.895833 0.750000
vt 0.895833 0.833333
vt 0.895833 0.916667
vt 0.895833 1.000000
vt 0.895833 0.000000
vt 0.895833 0.083333
vt 0.895833 0.166667
vt 0.895833 0.250000
vt 0.895833 0.333333
vt 0.895833 0.416667
vt 0.916667 0.500000
vt 0.916667 0.583333
vt 0.916667 0.666667
vt 0.916667 0.750000
vt 0.916667 0.833333
vt 0.916667 0.916667
vt 0.916667 1.000000
vt 0.916667 0.000000
vt 0.916667 0.083333
vt 0.916667 0.166667
vt 0.916667 0.250000
vt 0.916667 0.333333
vt 0.916667 0.416667
vt 0.937500 0.500000
vt 0.937500 0.583333
vt 0.937500 0.666667
vt 0.937500 0.750000
vt 0.937500 0.833333
vt 0.937500 0.916667
vt 0.937500 1.000000
vt 0.937500 0.000000
vt 0.937500 0.083333
vt 0.937500 0.166667
vt 0.937500 0.250000
vt 0.937500 0.333333
vt 0.937500 0.416667
vt 0.958333 0.500000
vt 0.958333 0.583333
vt 0.958333 0.666667
vt 0.958333 0.750000
vt 0.958333 0.833333
vt 0.958333 0.916667
vt 0.958333 1.000000
vt 0.958333 0.000000
vt 0.958333 0.083333
vt 0.958333 0.166667
vt 0.958333 0.250000
vt 0.958333 0.333333
vt 0.958333 0.416667
vt 0.979167 0.500000
vt 0.979167 0.583333
vt 0.979167 0.666667
vt 0.979167 0.750000
vt 0.979167 0.833333
vt 0.979167 0.916667
vt 0.979167 1.000000
vt 0.979167 0.000000
vt 0.979167 0.083333
vt 0.979167 0.166667
vt 0.979167 0.250000
vt 0.979167 0.333333
vt 0.979167 0.416667
vt 1.000000 0.500000
vt 1.000000 0.583333
vt 1.000000 0.666667
vt 1.000000 0.750000
vt 1.000000 0.833333
vt 1.000000 0.916667
vt 1.000000 1.000000
vt 1.000000 0.000000
vt 1.000000 0.083333
vt 1.000000 0.166667
vt 1.000000 0.250000
vt 1.000000 0.333333
vt 1.000000 0.416667
vt 0.000000 0.500000
vt 0.020833 0.500000
vt 0.020833 0.583333
vt 0.000000 0.583333
vt 0.020833 0.666667
vt 0.000000 0.666667
vt 0.020833 0.750000
vt 0.000000 0.750000
vt 0.020833 0.833333
vt 0.000000 0.833333
vt 0.020833 0.916667
vt 0.000000 0.916667
vt 0.020833 1.000000
vt 0.000000 1.000000
vt 0.000000 0.000000
vt 0.020833 0.000000
vt 0.020833 0.083333
vt 0.000000 0.083333
vt 0.020833 0.166667
vt 0.000000 0.166667
vt 0.020833 0.250000
vt 0.000000 0.250000
vt 0.020833 0.333333
vt 0.000000 0.333333
vt 0.020833 0.416667
vt 0.000000 0.416667
vt 0.041667 0.500000
vt 0.041667 0.583333
vt 0.041667 0.666667
vt 0.041667 0.750000
vt 0.041667 0.833333
vt 0.041667 0.916667
vt 0.041667 1.000000
vt 0.041667 0.000000
vt 0.041667 0.083333
vt 0.041667 0.166667
vt 0.041667 0.250000
vt 0.041667 0.333333
vt 0.041667 0.416667
vt 0.062500 0.500000
vt 0.062500 0.583333
vt 0.062500 0.666667
vt 0.062500 0.750000
vt 0.062500 0.833333
vt 0.062500 0.916667
vt 0.062500 1.000000
vt 0.062500 0.000000
vt 0.062500 0.083333
vt 0.062500 0.166667
vt 0.062500 0.250000
vt 0.062500 0.333333
vt 0.062500 0.416667
vt 0.083333 0.500000
vt 0.083333 0.583333
vt 0.083333 0.666667
vt 0.083333 0.750000
vt 0.083333 0.833333
vt 0.083333 0.916667
vt 0.083333 1.000000
vt 0.083333 0.000000
vt 0.083333 0.083333
vt 0.083333 0.166667
vt 0.083333 0.250000
vt 0.083333 0.333333
vt 0.083333 0.416667
vt 0.104167 0.500000
vt 0.104167 0.583333
vt 0.104167 0.666667
vt 0.104167 0.750000
vt 0.104167 0.833333
vt 0.104167 0.916667
vt 0.104167 1.000000
vt 0.104167 0.000000
vt 0.104167 0.083333
vt 0.104167 0.166667
vt 0.104167 0.250000
vt 0.104167 0.333333
vt 0.104167 0.416667
vt 0.125000 0.500000
vt 0.125000 0.583333
vt 0.125000 0.666667
vt 0.125000 0.750000
vt 0.125000 0.833333
vt 0.125000 0.916667
vt 0.125000 1.000000
vt 0.125000 0.000000
vt 0.125000 0.083333
vt 0.125000 0.166667
vt 0.125000 0.250000
vt 0.125000 0.333333
vt 0.125000 0.416667
vt 0.145833 0.500000
vt 0.145833 0.583333
vt 0.145833 0.666667
vt 0.145833 0.750000
vt 0.145833 0.833333
vt 0.145833 0.916667
vt 0.145833 1.000000
vt 0.145833 0.000000
vt 0.145833 0.083333
vt 0.145833 0.166667
vt 0.145833 0.250000
vt 0.145833 0.333333
vt 0.145833 0.416667
vt 0.166667 0.500000
vt 0.166667 0.583333
vt 0.166667 0.666667
vt 0.166667 0.750000
vt 0.166667 0.833333
vt 0.166667 0.916667
vt 0.166667 1.000000
vt 0.166667 0.000000
vt 0.166667 0.083333
vt 0.166667 0.166667
vt 0.166667 0.250000
vt 0.166667 0.333333
vt 0.166667 0.416667
vt 0.187500 0.500000
vt 0.187500 0.583333
vt 0.187500 0.666667
vt 0.187500 0.750000
vt 0.187500 0.833333
vt 0.187500 0.916667
vt 0.187500 1.000000
vt 0.187500 0.000000
vt 0.187500 0.083333
vt 0.187500 0.166667
vt 0.187500 0.250000
vt 0.187500 0.333333
vt 0.187500 0.416667
vt 0.208333 0.500000
vt 0.208333 0.583333
vt 0.208333 0.666667
vt 0.208333 0.750000
vt 0.208333 0.833333
vt 0.208333 0.916667
vt 0.208333 1.000000
vt 0.208333 0.000000
vt 0.208333 0.083333
vt 0.208333 0.166667
vt 0.208333 0.250000
vt 0.208333 0.333333
vt 0.208333 0.416667
vt 0.229167 0.500000
vt 0.229167 0.583333
vt 0.229167 0.666667
vt 0.229167 0.750000
vt 0.229167 0.833333
vt 0.229167 0.916667
vt 0.229167 1.000000
vt 0.229167 0.000000
vt 0.229167 0.083333
vt 0.229167 0.166667
vt 0.229167 0.250000
vt 0.229167 0.333333
vt 0.229167 0.416667
vt 0.250000 0.500000
vt 0.250000 0.583333
vt 0.250000 0.666667
vt 0.250000 0.750000
vt 0.250000 0.833333
vt 0.250000 0.916667
vt 0.250000 1.000000
vt 0.250000 0.000000
vt 0.250000 0.083333
vt 0.250000 0.166667
vt 0.250000 0.250000
vt 0.250000 0.333333
vt 0.250000 0.416667
vt 0.270833 0.500000
vt 0.270833 0.583333
vt 0.270833 0.666667
vt 0.270833 0.750000
vt 0.270833 0.833333
vt 0.270833 0.916667
vt 0.270833 1.000000
vt 0.270833 0.000000
vt 0.270833 0.083333
vt 0.270833 0.166667
vt 0.270833 0.250000
vt 0.270833 0.333333
vt 0.270833 0.416667
vt 0.291667 0.500000
vt 0.291667 0.583333
vt 0.291667 0.666667
vt 0.291667 0.750000
vt 0.291667 0.833333
vt 0.291667 0.916667
vt 0.291667 1.000000
vt 0.291667 0.000000
vt 0.291667 0.083333
vt 0.291667 0.166667
vt 0.291667 0.250000
vt 0.291667 0.333333
vt 0.291667 0.416667
vt 0.312500 0.500000
vt 0.312500 0.583333
vt 0.312500 0.666667
vt 0.312500 0.750000
vt 0.312500 0.833333
vt 0.312500 0.916667
vt 0.312500 1.000000
vt 0.312500 0.000000
vt 0.312500 0.083333
vt 0.312500 0.166667
vt 0.312500 0.250000
vt 0.312500 0.333333
vt 0.312500 0.416667
vt 0.333333 0.500000
vt 0.333333 0.583333
vt 0.333333 0.666667
vt 0.333333 0.750000
vt 0.333333 0.833333
vt 0.333333 0.916667
vt 0.333333 1.000000
vt 0.333333 0.000000
vt 0.333333 0.083333
vt 0.333333 0.166667
vt 0.333333 0.250000
vt 0.333333 0.333333
vt 0.333333 0.416667
vt 0.354167 0.500000
vt 0.354167 0.583333
vt 0.354167 0.666667
vt 0.354167 0.750000
vt 0.354167 0.833333
vt 0.354167 0.916667
vt 0.354167 1.000000
vt 0.354167 0.000000
vt 0.354167 0.083333
vt 0.354167 0.166667
vt 0.354167 0.250000
vt 0.354167 0.333333
vt 0.354167 0.416667
vt 0.375000 0.500000
vt 0.375000 0.583333
vt 0.375000 0.666667
vt 0.375000 0.750000
vt 0.375000 0.833333
vt 0.375000 0.916667
vt 0.375000 1.000000
vt 0.375000 0.000000
vt 0.375000 0.083333
vt 0.375000 0.166667
vt 0.375000 0.250000
vt 0.375000 0.333333
vt 0.375000 0.416667
vt 0.395833 0.500000
vt 0.395833 0.583333
vt 0.395833 0.666667
vt 0.395833 0.750000
vt 0.395833 0.833333
vt 0.395833 0.916667
vt 0.395833 1.000000
vt 0.395833 0.000000
vt 0.395833 0.083333
vt 0.395833 0.166667
vt 0.395833 0.250000
vt 0.395833 0.333333
vt 0.395833 0.416667
vt 0.416667 0.500000
vt 0.416667 0.583333
vt 0.416667 0.666667
vt 0.416667 0.750000
vt 0.416667 0.833333
vt 0.416667 0.916667
vt 0.416667 1.000000
vt 0.416667 0.000000
vt 0.416667 0.083333
vt 0.416667 0.166667
vt 0.416667 0.250000
vt 0.416667 0.333333
vt 0.416667 0.416667
vt 0.437500 0.500000
vt 0.437500 0.583333
vt 0.437500 0.666667
vt 0.437500 0.750000
vt 0.437500 0.833333
vt 0.437500 0.916667
vt 0.437500 1.000000
vt 0.437500 0.000000
vt 0.437500 0.083333
vt 0.437500 0.166667
vt 0.437500 0.250000
vt 0.437500 0.333333
vt 0.437500 0.416667
vt 0.458333 0.500000
vt 0.458333 0.583333
vt 0.458333 0.666667
vt 0.458333 0.750000
vt 0.458333 0.833333
vt 0.458333 0.916667
vt 0.458333 1.000000
vt 0.458333 0.000000
vt 0.458333 0.083333
vt 0.458333 0.166667
vt 0.458333 0.250000
vt 0.458333 0.333333
vt 0.458333 0.416667
vt 0.479167 0.500000
vt 0.479167 0.583333
vt 0.479167 0.666667
vt 0.479167 0.750000
vt 0.479167 0.833333
vt 0.479167 0.916667
vt 0.479167 1.000000
vt 0.479167 0.000000
vt 0.479167 0.083333
vt 0.479167 0.166667
vt 0.479167 0.250000
vt 0.479167 0.333333
vt 0.479167 0.416667
vt 0.983333 1.000000
vt 0.983333 0.500000
vt 0.966667 1.000000
vt 0.966667 0.500000
vt 0.950000 1.000000
vt 0.950000 0.500000
vt 0.933333 1.000000
vt 0.933333 0.500000
vt 0.916667 1.000000
vt 0.916667 0.500000
vt 0.900000 1.000000
vt 0.900000 0.500000
vt 0.883333 1.000000
vt 0.883333 0.500000
vt 0.866667 1.000000
vt 0.866667 0.500000
vt 0.850000 1.000000
vt 0.850000 0.500000
vt 0.833333 1.000000
vt 0.833333 0.500000
vt 0.816667 1.000000
vt 0.816667 0.500000
vt 0.800000 1.000000
vt 0.800000 0.500000
vt 0.783334 1.000000
vt 0.783334 0.500000
vt 0.766667 1.000000
vt 0.766667 0.500000
vt 0.750000 1.000000
vt 0.750000 0.500000
vt 0.733334 1.000000
vt 0.733334 0.500000
vt 0.716667 1.000000
vt 0.716667 0.500000
vt 0.700000 1.000000
vt 0.700000 0.500000
vt 0.683334 1.000000
vt 0.683334 0.500000
vt 0.666667 1.000000
vt 0.666667 0.500000
vt 0.650000 1.000000
vt 0.650000 0.500000
vt 0.633334 1.000000
vt 0.633334 0.500000
vt 0.616667 1.000000
vt 0.616667 0.500000
vt 0.600000 1.000000
vt 0.600000 0.500000
vt 0.583334 1.000000
vt 0.583334 0.500000
vt 0.566667 1.000000
vt 0.566667 0.500000
vt 0.550000 1.000000
vt 0.550000 0.500000
vt 0.533334 1.000000
vt 0.533334 0.500000
vt 0.516667 1.000000
vt 0.516667 0.500000
vt 0.500000 1.000000
vt 0.500000 0.500000
vt 0.483334 1.000000
vt 0.483334 0.500000
vt 0.466667 1.000000
vt 0.466667 0.500000
vt 0.450000 1.000000
vt 0.450000 0.500000
vt 0.433334 1.000000
vt 0.433334 0.500000
vt 0.416667 1.000000
vt 0.416667 0.500000
vt 0.400000 1.000000
vt 0.400000 0.500000
vt 0.383334 1.000000
vt 0.383334 0.500000
vt 0.366667 1.000000
vt 0.366667 0.500000
vt 0.350000 1.000000
vt 0.350000 0.500000
vt 0.333334 1.000000
vt 0.333334 0.500000
vt 0.316667 1.000000
vt 0.316667 0.500000
vt 0.300000 1.000000
vt 0.300000 0.500000
vt 0.283334 1.000000
vt 0.283334 0.500000
vt 0.266667 1.000000
vt 0.266667 0.500000
vt 0.250000 1.000000
vt 0.250000 0.500000
vt 0.233334 1.000000
vt 0.233334 0.500000
vt 0.216667 1.000000
vt 0.216667 0.500000
vt 0.200000 1.000000
vt 0.200000 0.500000
vt 0.183334 1.000000
vt 0.183334 0.500000
vt 0.166667 1.000000
vt 0.166667 0.500000
vt 0.150000 1.000000
vt 0.150000 0.500000
vt 0.133334 1.000000
vt 0.133334 0.500000
vt 0.116667 1.000000
vt 0.116667 0.500000
vt 0.100000 1.000000
vt 0.100000 0.500000
vt 0.083334 1.000000
vt 0.083334 0.500000
vt 0.066667 1.000000
vt 0.066667 0.500000
vt 0.050000 1.000000
vt 0.050000 0.500000
vt 0.033334 1.000000
vt 0.033334 0.500000
vt 0.275087 0.488685
vt 0.250000 0.490000
vt 0.224913 0.488685
vt 0.200101 0.484755
vt 0.175836 0.478254
vt 0.152383 0.469251
vt 0.130000 0.457846
vt 0.108932 0.444164
vt 0.089409 0.428355
vt 0.071645 0.410591
vt 0.055836 0.391068
vt 0.042154 0.370000
vt 0.030749 0.347617
vt 0.021746 0.324164
vt 0.015245 0.299899
vt 0.011315 0.275087
vt 0.010000 0.250000
vt 0.011315 0.224913
vt 0.015245 0.200101
vt 0.021746 0.175836
vt 0.030749 0.152383
vt 0.042154 0.130000
vt 0.055836 0.108932
vt 0.071645 0.089409
vt 0.089409 0.071645
vt 0.108932 0.055836
vt 0.130000 0.042154
vt 0.152383 0.030749
vt 0.175836 0.021746
vt 0.200101 0.015245
vt 0.224913 0.011315
vt 0.250000 0.010000
vt 0.275087 0.011315
vt 0.299899 0.015245
vt 0.324164 0.021746
vt 0.347617 0.030749
vt 0.370000 0.042154
vt 0.391068 0.055836
vt 0.410591 0.071645
vt 0.428355 0.089409
vt 0.444164 0.108932
vt 0.457846 0.130000
vt 0.469251 0.152383
vt 0.478254 0.175836
vt 0.484755 0.200101
vt 0.488685 0.224913
vt 0.490000 0.250000
vt 0.488685 0.275087
vt 0.484755 0.299899
vt 0.478254 0.324164
vt 0.469251 0.347617
vt 0.457846 0.370000
vt 0.444164 0.391068
vt 0.428355 0.410591
vt 0.410591 0.428355
vt 0.391068 0.444164
vt 0.370000 0.457846
vt 0.347617 0.469251
vt 0.324164 0.478254
vt 0.299899 0.484755
vt 0.016667 1.000000
vt 0.016667 0.500000
vt 0.000000 1.000000
vt 0.000000 0.500000
vt 0.750000 0.490000
vt 0.775087 0.488685
vt 0.799899 0.484755
vt 0.824164 0.478254
vt 0.847617 0.469251
vt 0.870000 0.457846
vt 0.891068 0.444164
vt 0.910591 0.428355
vt 0.928355 0.410591
vt 0.944164 0.391068
vt 0.957846 0.370000
vt 0.969251 0.347617
vt 0.978254 0.324164
vt 0.984755 0.299899
vt 0.988685 0.275087
vt 0.990000 0.250000
vt 0.988685 0.224913
vt 0.984755 0.200101
vt 0.978254 0.175836
vt 0.969251 0.152383
vt 0.957846 0.130000
vt 0.944164 0.108932
vt 0.928355 0.089409
vt 0.910591 0.071645
vt 0.891068 0.055836
vt 0.870000 0.042154
vt 0.847617 0.030749
vt 0.824164 0.021746
vt 0.799899 0.015245
vt 0.775087 0.011315
vt 0.750000 0.010000
vt 0.724913 0.011315
vt 0.700101 0.015245
vt 0.675836 0.021746
vt 0.652383 0.030749
vt 0.630000 0.042154
vt 0.608932 0.055836
vt 0.589409 0.071645
vt 0.571645 0.089409
vt 0.555836 0.108932
vt 0.542154 0.130000
vt 0.530749 0.152383
vt 0.521746 0.175836
vt 0.515245 0.200101
vt 0.511315 0.224913
vt 0.510000 0.250000
vt 0.511315 0.275087
vt 0.515245 0.299899
vt 0.521746 0.324164
vt 0.530749 0.347617
vt 0.542154 0.370000
vt 0.555836 0.391068
vt 0.571645 0.410591
vt 0.589409 0.428355
vt 0.608932 0.444164
vt 0.630000 0.457846
vt 0.652383 0.469251
vt 0.675836 0.478254
vt 0.700101 0.484755
vt 0.724913 0.488685
s 0
usemtl Material.007
f 2/1/1 1/1/1 28/1/1 27/1/1 26/1/1 25/1/1 24/1/1 14/1/1 13/1/1 12/1/1 6/1/1 5/1/1 4/1/1 3/1/1
f 22/1/2 21/1/2 20/1/2 19/1/2 18/1/2 17/1/2 16/1/2 15/1/2 11/1/2 10/1/2 9/1/2 8/1/2 7/1/2 23/1/2
f 26/1/3 27/1/3 8/1/3 9/1/3
f 1/1/4 2/1/4 22/1/4 23/1/4
f 12/1/5 13/1/5 16/1/5 17/1/5
f 27/1/6 28/1/6 7/1/6 8/1/6
f 2/1/7 3/1/7 21/1/7 22/1/7
f 13/1/8 14/1/8 15/1/8 16/1/8
f 28/1/9 1/1/9 23/1/9 7/1/9
f 3/1/10 4/1/10 20/1/10 21/1/10
f 14/1/11 24/1/11 11/1/11 15/1/11
f 4/1/12 5/1/12 19/1/12 20/1/12
f 6/1/13 12/1/13 17/1/13 18/1/13
f 5/1/14 6/1/14 18/1/14 19/1/14
f 24/1/15 25/1/15 10/1/15 11/1/15
f 25/1/16 26/1/16 9/1/16 10/1/16
f 29/2/17 41/3/17 42/4/17 30/5/17
f 30/5/18 42/4/18 43/6/18 31/7/18
f 31/7/19 43/6/19 44/8/19 32/9/19
f 32/9/20 44/8/20 45/10/20 33/11/20
f 33/11/21 45/10/21 46/12/21 34/13/21
f 34/13/22 46/12/22 47/14/22 35/15/22
f 35/16/23 47/17/23 48/18/23 36/19/23
f 36/19/24 48/18/24 49/20/24 37/21/24
f 37/21/25 49/20/25 50/22/25 38/23/25
f 38/23/26 50/22/26 51/24/26 39/25/26
f 39/25/27 51/24/27 52/26/27 40/27/27
f 40/27/28 52/26/28 41/3/28 29/2/28
f 41/3/29 53/28/29 54/29/29 42/4/29
f 42/4/30 54/29/30 55/30/30 43/6/30
f 43/6/31 55/30/31 56/31/31 44/8/31
f 44/8/32 56/31/32 57/32/32 45/10/32
f 45/10/33 57/32/33 58/33/33 46/12/33
f 46/12/34 58/33/34 59/34/34 47/14/34
f 47/17/35 59/35/35 60/36/35 48/18/35
f 48/18/36 60/36/36 61/37/36 49/20/36
f 49/20/37 61/37/37 62/38/37 50/22/37
f 50/22/38 62/38/38 63/39/38 51/24/38
f 51/24/39 63/39/39 64/40/39 52/26/39
f 52/26/40 64/40/40 53/28/40 41/3/40
f 53/28/41 65/41/41 66/42/41 54/29/41
f 54/29/42 66/42/42 67/43/42 55/30/42
f 55/30/43 67/43/43 68/44/43 56/31/43
f 56/31/44 68/44/44 69/45/44 57/32/44
f 57/32/45 69/45/45 70/46/45 58/33/45
f 58/33/46 70/46/46 71/47/46 59/34/46
f 59/35/47 71/48/47 72/49/47 60/36/47
f 60/36/48 72/49/48 73/50/48 61/37/48
f 61/37/49 73/50/49 74/51/49 62/38/49
f 62/38/50 74/51/50 75/52/50 63/39/50
f 63/39/51 75/52/51 76/53/51 64/40/51
f 64/40/52 76/53/52 65/41/52 53/28/52
f 65/41/53 77/54/53 78/55/53 66/42/53
f 66/42/54 78/55/54 79/56/54 67/43/54
f 67/43/55 79/56/55 80/57/55 68/44/55
f 68/44/56 80/57/56 81/58/56 69/45/56
f 69/45/57 81/58/57 82/59/57 70/46/57
f 70/46/58 82/59/58 83/60/58 71/47/58
f 71/48/59 83/61/59 84/62/59 72/49/59
f 72/49/60 84/62/60 85/63/60 73/50/60
f 73/50/61 85/63/61 86/64/61 74/51/61
f 74/51/62 86/64/62 87/65/62 75/52/62
f 75/52/63 87/65/63 88/66/63 76/53/63
f 76/53/64 88/66/64 77/54/64 65/41/64
f 77/54/65 89/67/65 90/68/65 78/55/65
f 78/55/66 90/68/66 91/69/66 79/56/66
f 79/56/67 91/69/67 92/70/67 80/57/67
f 80/57/68 92/70/68 93/71/68 81/58/68
f 81/58/69 93/71/69 94/72/69 82/59/69
f 82/59/70 94/72/70 95/73/70 83/60/70
f 83/61/71 95/74/71 96/75/71 84/62/71
f 84/62/72 96/75/72 97/76/72 85/63/72
f 85/63/73 97/76/73 98/77/73 86/64/73
f 86/64/74 98/77/74 99/78/74 87/65/74
f 87/65/75 99/78/75 100/79/75 88/66/75
f 88/66/76 100/79/76 89/67/76 77/54/76
f 89/67/77 101/80/77 102/81/77 90/68/77
f 90/68/78 102/81/78 103/82/78 91/69/78
f 91/69/79 103/82/79 104/83/79 92/70/79
f 92/70/80 104/83/80 105/84/80 93/71/80
f 93/71/81 105/84/81 106/85/81 94/72/81
f 94/72/82 106/85/82 107/86/82 95/73/82
f 95/74/83 107/87/83 108/88/83 96/75/83
f 96/75/84 108/88/84 109/89/84 97/76/84
f 97/76/85 109/89/85 110/90/85 98/77/85
f 98/77/86 110/90/86 111/91/86 99/78/86
f 99/78/87 111/91/87 112/92/87 100/79/87
f 100/79/88 112/92/88 101/80/88 89/67/88
f 101/80/89 113/93/89 114/94/89 102/81/89
f 102/81/90 114/94/90 115/95/90 103/82/90
f 103/82/91 115/95/91 116/96/91 104/83/91
f 104/83/92 116/96/92 117/97/92 105/84/92
f 105/84/93 117/97/93 118/98/93 106/85/93
f 106/85/94 118/98/94 119/99/94 107/86/94
f 107/87/95 119/100/95 120/101/95 108/88/95
f 108/88/96 120/101/96 121/102/96 109/89/96
f 109/89/97 121/102/97 122/103/97 110/90/97
f 110/90/98 122/103/98 123/104/98 111/91/98
f 111/91/99 123/104/99 124/105/99 112/92/99
f 112/92/100 124/105/100 113/93/100 101/80/100
f 113/93/101 125/106/101 126/107/101 114/94/101
f 114/94/102 126/107/102 127/108/102 115/95/102
f 115/95/103 127/108/103 128/109/103 116/96/103
f 116/96/104 128/109/104 129/110/104 117/97/104
f 117/97/105 129/110/105 130/111/105 118/98/105
f 118/98/106 130/111/106 131/112/106 119/99/106
f 119/100/107 131/113/107 132/114/107 120/101/107
f 120/101/108 132/114/108 133/115/108 121/102/108
f 121/102/109 133/115/109 134/116/109 122/103/109
f 122/103/110 134/116/110 135/117/110 123/104/110
f 123/104/111 135/117/111 136/118/111 124/105/111
f 124/105/112 136/118/112 125/106/112 113/93/112
f 125/106/113 137/119/113 138/120/113 126/107/113
f 126/107/114 138/120/114 139/121/114 127/108/114
f 127/108/115 139/121/115 140/122/115 128/109/115
f 128/109/116 140/122/116 141/123/116 129/110/116
f 129/110/117 141/123/117 142/124/117 130/111/117
f 130/111/118 142/124/118 143/125/118 131/112/118
f 131/113/119 143/126/119 144/127/119 132/114/119
f 132/114/120 144/127/120 145/128/120 133/115/120
f 133/115/121 145/128/121 146/129/121 134/116/121
f 134/116/122 146/129/122 147/130/122 135/117/122
f 135/117/123 147/130/123 148/131/123 136/118/123
f 136/118/124 148/131/124 137/119/124 125/106/124
f 137/119/125 149/132/125 150/133/125 138/120/125
f 138/120/126 150/133/126 151/134/126 139/121/126
f 139/121/127 151/134/127 152/135/127 140/122/127
f 140/122/128 152/135/128 153/136/128 141/123/128
f 141/123/129 153/136/129 154/137/129 142/124/129
f 142/124/130 154/137/130 155/138/130 143/125/130
f 143/126/131 155/139/131 156/140/131 144/127/131
f 144/127/132 156/140/132 157/141/132 145/128/132
f 145/128/133 157/141/133 158/142/133 146/129/133
f 146/129/134 158/142/134 159/143/134 147/130/134
f 147/130/135 159/143/135 160/144/135 148/131/135
f 148/131/136 160/144/136 149/132/136 137/119/136
f 149/132/137 161/145/137 162/146/137 150/133/137
f 150/133/138 162/146/138 163/147/138 151/134/138
f 151/134/139 163/147/139 164/148/139 152/135/139
f 152/135/140 164/148/140 165/149/140 153/136/140
f 153/136/141 165/149/141 166/150/141 154/137/141
f 154/137/142 166/150/142 167/151/142 155/138/142
f 155/139/143 167/152/143 168/153/143 156/140/143
f 156/140/144 168/153/144 169/154/144 157/141/144
f 157/141/145 169/154/145 170/155/145 158/142/145
f 158/142/146 170/155/146 171/156/146 159/143/146
f 159/143/147 171/156/147 172/157/147 160/144/147
f 160/144/148 172/157/148 161/145/148 149/132/148
f 161/145/149 173/158/149 174/159/149 162/146/149
f 162/146/150 174/159/150 175/160/150 163/147/150
f 163/147/151 175/160/151 176/161/151 164/148/151
f 164/148/152 176/161/152 177/162/152 165/149/152
f 165/149/153 177/162/153 178/163/153 166/150/153
f 166/150/154 178/163/154 179/164/154 167/151/154
f 167/152/155 179/165/155 180/166/155 168/153/155
f 168/153/156 180/166/156 181/167/156 169/154/156
f 169/154/157 181/167/157 182/168/157 170/155/157
f 170/155/158 182/168/158 183/169/158 171/156/158
f 171/156/159 183/169/159 184/170/159 172/157/159
f 172/157/160 184/170/160 173/158/160 161/145/160
f 173/158/161 185/171/161 186/172/161 174/159/161
f 174/159/162 186/172/162 187/173/162 175/160/162
f 175/160/163 187/173/163 188/174/163 176/161/163
f 176/161/164 188/174/164 189/175/164 177/162/164
f 177/162/165 189/175/165 190/176/165 178/163/165
f 178/163/166 190/176/166 191/177/166 179/164/166
f 179/165/167 191/178/167 192/179/167 180/166/167
f 180/166/168 192/179/168 193/180/168 181/167/168
f 181/167/169 193/180/169 194/181/169 182/168/169
f 182/168/170 194/181/170 195/182/170 183/169/170
f 183/169/171 195/182/171 196/183/171 184/170/171
f 184/170/172 196/183/172 185/171/172 173/158/172
f 185/171/173 197/184/173 198/185/173 186/172/173
f 186/172/174 198/185/174 199/186/174 187/173/174
f 187/173/175 199/186/175 200/187/175 188/174/175
f 188/174/176 200/187/176 201/188/176 189/175/176
f 189/175/177 201/188/177 202/189/177 190/176/177
f 190/176/178 202/189/178 203/190/178 191/177/178
f 191/178/179 203/191/179 204/192/179 192/179/179
f 192/179/180 204/192/180 205/193/180 193/180/180
f 193/180/181 205/193/181 206/194/181 194/181/181
f 194/181/182 206/194/182 207/195/182 195/182/182
f 195/182/183 207/195/183 208/196/183 196/183/183
f 196/183/184 208/196/184 197/184/184 185/171/184
f 197/184/185 209/197/185 210/198/185 198/185/185
f 198/185/186 210/198/186 211/199/186 199/186/186
f 199/186/187 211/199/187 212/200/187 200/187/187
f 200/187/188 212/200/188 213/201/188 201/188/188
f 201/188/189 213/201/189 214/202/189 202/189/189
f 202/189/190 214/202/190 215/203/190 203/190/190
f 203/191/191 215/204/191 216/205/191 204/192/191
f 204/192/192 216/205/192 217/206/192 205/193/192
f 205/193/193 217/206/193 218/207/193 206/194/193
f 206/194/194 218/207/194 219/208/194 207/195/194
f 207/195/195 219/208/195 220/209/195 208/196/195
f 208/196/196 220/209/196 209/197/196 197/184/196
f 209/197/197 221/210/197 222/211/197 210/198/197
f 210/198/198 222/211/198 223/212/198 211/199/198
f 211/199/199 223/212/199 224/213/199 212/200/199
f 212/200/200 224/213/200 225/214/200 213/201/200
f 213/201/201 225/214/201 226/215/201 214/202/201
f 214/202/202 226/215/202 227/216/202 215/203/202
f 215/204/203 227/217/203 228/218/203 216/205/203
f 216/205/204 228/218/204 229/219/204 217/206/204
f 217/206/205 229/219/205 230/220/205 218/207/205
f 218/207/206 230/220/206 231/221/206 219/208/206
f 219/208/207 231/221/207 232/222/207 220/209/207
f 220/209/208 232/222/208 221/210/208 209/197/208
f 221/210/209 233/223/209 234/224/209 222/211/209
f 222/211/210 234/224/210 235/225/210 223/212/210
f 223/212/211 235/225/211 236/226/211 224/213/211
f 224/213/212 236/226/212 237/227/212 225/214/212
f 225/214/213 237/227/213 238/228/213 226/215/213
f 226/215/214 238/228/214 239/229/214 227/216/214
f 227/217/215 239/230/215 240/231/215 228/218/215
f 228/218/216 240/231/216 241/232/216 229/219/216
f 229/219/217 241/232/217 242/233/217 230/220/217
f 230/220/218 242/233/218 243/234/218 231/221/218
f 231/221/219 243/234/219 244/235/219 232/222/219
f 232/222/220 244/235/220 233/223/220 221/210/220
f 233/223/221 245/236/221 246/237/221 234/224/221
f 234/224/222 246/237/222 247/238/222 235/225/222
f 235/225/223 247/238/223 248/239/223 236/226/223
f 236/226/224 248/239/224 249/240/224 237/227/224
f 237/227/225 249/240/225 250/241/225 238/228/225
f 238/228/226 250/241/226 251/242/226 239/229/226
f 239/230/227 251/243/227 252/244/227 240/231/227
f 240/231/228 252/244/228 253/245/228 241/232/228
f 241/232/229 253/245/229 254/246/229 242/233/229
f 242/233/230 254/246/230 255/247/230 243/234/230
f 243/234/231 255/247/231 256/248/231 244/235/231
f 244/235/232 256/248/232 245/236/232 233/223/232
f 245/236/233 257/249/233 258/250/233 246/237/233
f 246/237/234 258/250/234 259/251/234 247/238/234
f 247/238/235 259/251/235 260/252/235 248/239/235
f 248/239/236 260/252/236 261/253/236 249/240/236
f 249/240/237 261/253/237 262/254/237 250/241/237
f 250/241/238 262/254/238 263/255/238 251/242/238
f 251/243/239 263/256/239 264/257/239 252/244/239
f 252/244/240 264/257/240 265/258/240 253/245/240
f 253/245/241 265/258/241 266/259/241 254/246/241
f 254/246/242 266/259/242 267/260/242 255/247/242
f 255/247/243 267/260/243 268/261/243 256/248/243
f 256/248/244 268/261/244 257/249/244 245/236/244
f 257/249/245 269/262/245 270/263/245 258/250/245
f 258/250/246 270/263/246 271/264/246 259/251/246
f 259/251/247 271/264/247 272/265/247 260/252/247
f 260/252/248 272/265/248 273/266/248 261/253/248
f 261/253/249 273/266/249 274/267/249 262/254/249
f 262/254/250 274/267/250 275/268/250 263/255/250
f 263/256/251 275/269/251 276/270/251 264/257/251
f 264/257/252 276/270/252 277/271/252 265/258/252
f 265/258/253 277/271/253 278/272/253 266/259/253
f 266/259/254 278/272/254 279/273/254 267/260/254
f 267/260/255 279/273/255 280/274/255 268/261/255
f 268/261/256 280/274/256 269/262/256 257/249/256
f 269/262/257 281/275/257 282/276/257 270/263/257
f 270/263/258 282/276/258 283/277/258 271/264/258
f 271/264/259 283/277/259 284/278/259 272/265/259
f 272/265/260 284/278/260 285/279/260 273/266/260
f 273/266/261 285/279/261 286/280/261 274/267/261
f 274/267/262 286/280/262 287/281/262 275/268/262
f 275/269/263 287/282/263 288/283/263 276/270/263
f 276/270/264 288/283/264 289/284/264 277/271/264
f 277/271/265 289/284/265 290/285/265 278/272/265
f 278/272/266 290/285/266 291/286/266 279/273/266
f 279/273/267 291/286/267 292/287/267 280/274/267
f 280/274/268 292/287/268 281/275/268 269/262/268
f 281/275/269 293/288/269 294/289/269 282/276/269
f 282/276/270 294/289/270 295/290/270 283/277/270
f 283/277/271 295/290/271 296/291/271 284/278/271
f 284/278/272 296/291/272 297/292/272 285/279/272
f 285/279/273 297/292/273 298/293/273 286/280/273
f 286/280/274 298/293/274 299/294/274 287/281/274
f 287/282/275 299/295/275 300/296/275 288/283/275
f 288/283/276 300/296/276 301/297/276 289/284/276
f 289/284/277 301/297/277 302/298/277 290/285/277
f 290/285/278 302/298/278 303/299/278 291/286/278
f 291/286/279 303/299/279 304/300/279 292/287/279
f 292/287/280 304/300/280 293/288/280 281/275/280
f 293/288/281 305/301/281 306/302/281 294/289/281
f 294/289/282 306/302/282 307/303/282 295/290/282
f 295/290/283 307/303/283 308/304/283 296/291/283
f 296/291/284 308/304/284 309/305/284 297/292/284
f 297/292/285 309/305/285 310/306/285 298/293/285
f 298/293/286 310/306/286 311/307/286 299/294/286
f 299/295/287 311/308/287 312/309/287 300/296/287
f 300/296/288 312/309/288 313/310/288 301/297/288
f 301/297/289 313/310/289 314/311/289 302/298/289
f 302/298/290 314/311/290 315/312/290 303/299/290
f 303/299/291 315/312/291 316/313/291 304/300/291
f 304/300/292 316/313/292 305/301/292 293/288/292
f 305/301/293 317/314/293 318/315/293 306/302/293
f 306/302/294 318/315/294 319/316/294 307/303/294
f 307/303/295 319/316/295 320/317/295 308/304/295
f 308/304/296 320/317/296 321/318/296 309/305/296
f 309/305/297 321/318/297 322/319/297 310/306/297
f 310/306/298 322/319/298 323/320/298 311/307/298
f 311/308/299 323/321/299 324/322/299 312/309/299
f 312/309/300 324/322/300 325/323/300 313/310/300
f 313/310/301 325/323/301 326/324/301 314/311/301
f 314/311/302 326/324/302 327/325/302 315/312/302
f 315/312/303 327/325/303 328/326/303 316/313/303
f 316/313/304 328/326/304 317/314/304 305/301/304
f 317/327/22 329/328/22 330/329/22 318/330/22
f 318/330/21 330/329/21 331/331/21 319/332/21
f 319/332/20 331/331/20 332/333/20 320/334/20
f 320/334/19 332/333/19 333/335/19 321/336/19
f 321/336/18 333/335/18 334/337/18 322/338/18
f 322/338/17 334/337/17 335/339/17 323/340/17
f 323/341/28 335/342/28 336/343/28 324/344/28
f 324/344/27 336/343/27 337/345/27 325/346/27
f 325/346/26 337/345/26 338/347/26 326/348/26
f 326/348/25 338/347/25 339/349/25 327/350/25
f 327/350/24 339/349/24 340/351/24 328/352/24
f 328/352/23 340/351/23 329/328/23 317/327/23
f 329/328/34 341/353/34 342/354/34 330/329/34
f 330/329/33 342/354/33 343/355/33 331/331/33
f 331/331/32 343/355/32 344/356/32 332/333/32
f 332/333/31 344/356/31 345/357/31 333/335/31
f 333/335/30 345/357/30 346/358/30 334/337/30
f 334/337/29 346/358/29 347/359/29 335/339/29
f 335/342/40 347/360/40 348/361/40 336/343/40
f 336/343/39 348/361/39 349/362/39 337/345/39
f 337/345/38 349/362/38 350/363/38 338/347/38
f 338/347/37 350/363/37 351/364/37 339/349/37
f 339/349/36 351/364/36 352/365/36 340/351/36
f 340/351/35 352/365/35 341/353/35 329/328/35
f 341/353/46 353/366/46 354/367/46 342/354/46
f 342/354/45 354/367/45 355/368/45 343/355/45
f 343/355/44 355/368/44 356/369/44 344/356/44
f 344/356/43 356/369/43 357/370/43 345/357/43
f 345/357/42 357/370/42 358/371/42 346/358/42
f 346/358/41 358/371/41 359/372/41 347/359/41
f 347/360/52 359/373/52 360/374/52 348/361/52
f 348/361/51 360/374/51 361/375/51 349/362/51
f 349/362/50 361/375/50 362/376/50 350/363/50
f 350/363/49 362/376/49 363/377/49 351/364/49
f 351/364/48 363/377/48 364/378/48 352/365/48
f 352/365/47 364/378/47 353/366/47 341/353/47
f 353/366/58 365/379/58 366/380/58 354/367/58
f 354/367/305 366/380/305 367/381/305 355/368/305
f 355/368/56 367/381/56 368/382/56 356/369/56
f 356/369/55 368/382/55 369/383/55 357/370/55
f 357/370/54 369/383/54 370/384/54 358/371/54
f 358/371/53 370/384/53 371/385/53 359/372/53
f 359/373/64 371/386/64 372/387/64 360/374/64
f 360/374/63 372/387/63 373/388/63 361/375/63
f 361/375/62 373/388/62 374/389/62 362/376/62
f 362/376/61 374/389/61 375/390/61 363/377/61
f 363/377/306 375/390/306 376/391/306 364/378/306
f 364/378/59 376/391/59 365/379/59 353/366/59
f 365/379/70 377/392/70 378/393/70 366/380/70
f 366/380/307 378/393/307 379/394/307 367/381/307
f 367/381/68 379/394/68 380/395/68 368/382/68
f 368/382/67 380/395/67 381/396/67 369/383/67
f 369/383/66 381/396/66 382/397/66 370/384/66
f 370/384/65 382/397/65 383/398/65 371/385/65
f 371/386/76 383/399/76 384/400/76 372/387/76
f 372/387/75 384/400/75 385/401/75 373/388/75
f 373/388/74 385/401/74 386/402/74 374/389/74
f 374/389/73 386/402/73 387/403/73 375/390/73
f 375/390/72 387/403/72 388/404/72 376/391/72
f 376/391/71 388/404/71 377/392/71 365/379/71
f 377/392/82 389/405/82 390/406/82 378/393/82
f 378/393/81 390/406/81 391/407/81 379/394/81
f 379/394/80 391/407/80 392/408/80 380/395/80
f 380/395/79 392/408/79 393/409/79 381/396/79
f 381/396/78 393/409/78 394/410/78 382/397/78
f 382/397/77 394/410/77 395/411/77 383/398/77
f 383/399/88 395/412/88 396/413/88 384/400/88
f 384/400/87 396/413/87 397/414/87 385/401/87
f 385/401/86 397/414/86 398/415/86 386/402/86
f 386/402/85 398/415/85 399/416/85 387/403/85
f 387/403/84 399/416/84 400/417/84 388/404/84
f 388/404/83 400/417/83 389/405/83 377/392/83
f 389/405/94 401/418/94 402/419/94 390/406/94
f 390/406/93 402/419/93 403/420/93 391/407/93
f 391/407/92 403/420/92 404/421/92 392/408/92
f 392/408/91 404/421/91 405/422/91 393/409/91
f 393/409/90 405/422/90 406/423/90 394/410/90
f 394/410/89 406/423/89 407/424/89 395/411/89
f 395/412/100 407/425/100 408/426/100 396/413/100
f 396/413/99 408/426/99 409/427/99 397/414/99
f 397/414/98 409/427/98 410/428/98 398/415/98
f 398/415/97 410/428/97 411/429/97 399/416/97
f 399/416/96 411/429/96 412/430/96 400/417/96
f 400/417/95 412/430/95 401/418/95 389/405/95
f 401/418/106 413/431/106 414/432/106 402/419/106
f 402/419/105 414/432/105 415/433/105 403/420/105
f 403/420/104 415/433/104 416/434/104 404/421/104
f 404/421/103 416/434/103 417/435/103 405/422/103
f 405/422/308 417/435/308 418/436/308 406/423/308
f 406/423/101 418/436/101 419/437/101 407/424/101
f 407/425/112 419/438/112 420/439/112 408/426/112
f 408/426/309 420/439/309 421/440/309 409/427/309
f 409/427/110 421/440/110 422/441/110 410/428/110
f 410/428/109 422/441/109 423/442/109 411/429/109
f 411/429/108 423/442/108 424/443/108 412/430/108
f 412/430/107 424/443/107 413/431/107 401/418/107
f 413/431/118 425/444/118 426/445/118 414/432/118
f 414/432/117 426/445/117 427/446/117 415/433/117
f 415/433/116 427/446/116 428/447/116 416/434/116
f 416/434/115 428/447/115 429/448/115 417/435/115
f 417/435/114 429/448/114 430/449/114 418/436/114
f 418/436/113 430/449/113 431/450/113 419/437/113
f 419/438/124 431/451/124 432/452/124 420/439/124
f 420/439/123 432/452/123 433/453/123 421/440/123
f 421/440/122 433/453/122 434/454/122 422/441/122
f 422/441/121 434/454/121 435/455/121 423/442/121
f 423/442/120 435/455/120 436/456/120 424/443/120
f 424/443/119 436/456/119 425/444/119 413/431/119
f 425/444/130 437/457/130 438/458/130 426/445/130
f 426/445/129 438/458/129 439/459/129 427/446/129
f 427/446/128 439/459/128 440/460/128 428/447/128
f 428/447/127 440/460/127 441/461/127 429/448/127
f 429/448/126 441/461/126 442/462/126 430/449/126
f 430/449/125 442/462/125 443/463/125 431/450/125
f 431/451/136 443/464/136 444/465/136 432/452/136
f 432/452/310 444/465/310 445/466/310 433/453/310
f 433/453/134 445/466/134 446/467/134 434/454/134
f 434/454/133 446/467/133 447/468/133 435/455/133
f 435/455/132 447/468/132 448/469/132 436/456/132
f 436/456/131 448/469/131 437/457/131 425/444/131
f 437/457/142 449/470/142 450/471/142 438/458/142
f 438/458/141 450/471/141 451/472/141 439/459/141
f 439/459/140 451/472/140 452/473/140 440/460/140
f 440/460/139 452/473/139 453/474/139 441/461/139
f 441/461/138 453/474/138 454/475/138 442/462/138
f 442/462/137 454/475/137 455/476/137 443/463/137
f 443/464/148 455/477/148 456/478/148 444/465/148
f 444/465/147 456/478/147 457/479/147 445/466/147
f 445/466/146 457/479/146 458/480/146 446/467/146
f 446/467/145 458/480/145 459/481/145 447/468/145
f 447/468/144 459/481/144 460/482/144 448/469/144
f 448/469/143 460/482/143 449/470/143 437/457/143
f 449/470/154 461/483/154 462/484/154 450/471/154
f 450/471/153 462/484/153 463/485/153 451/472/153
f 451/472/152 463/485/152 464/486/152 452/473/152
f 452/473/151 464/486/151 465/487/151 453/474/151
f 453/474/150 465/487/150 466/488/150 454/475/150
f 454/475/149 466/488/149 467/489/149 455/476/149
f 455/477/160 467/490/160 468/491/160 456/478/160
f 456/478/159 468/491/159 469/492/159 457/479/159
f 457/479/158 469/492/158 470/493/158 458/480/158
f 458/480/157 470/493/157 471/494/157 459/481/157
f 459/481/156 471/494/156 472/495/156 460/482/156
f 460/482/155 472/495/155 461/483/155 449/470/155
f 461/483/166 473/496/166 474/497/166 462/484/166
f 462/484/165 474/497/165 475/498/165 463/485/165
f 463/485/164 475/498/164 476/499/164 464/486/164
f 464/486/163 476/499/163 477/500/163 465/487/163
f 465/487/162 477/500/162 478/501/162 466/488/162
f 466/488/161 478/501/161 479/502/161 467/489/161
f 467/490/172 479/503/172 480/504/172 468/491/172
f 468/491/171 480/504/171 481/505/171 469/492/171
f 469/492/170 481/505/170 482/506/170 470/493/170
f 470/493/169 482/506/169 483/507/169 471/494/169
f 471/494/168 483/507/168 484/508/168 472/495/168
f 472/495/167 484/508/167 473/496/167 461/483/167
f 473/496/178 485/509/178 486/510/178 474/497/178
f 474/497/177 486/510/177 487/511/177 475/498/177
f 475/498/176 487/511/176 488/512/176 476/499/176
f 476/499/175 488/512/175 489/513/175 477/500/175
f 477/500/174 489/513/174 490/514/174 478/501/174
f 478/501/173 490/514/173 491/515/173 479/502/173
f 479/503/184 491/516/184 492/517/184 480/504/184
f 480/504/183 492/517/183 493/518/183 481/505/183
f 481/505/182 493/518/182 494/519/182 482/506/182
f 482/506/181 494/519/181 495/520/181 483/507/181
f 483/507/180 495/520/180 496/521/180 484/508/180
f 484/508/179 496/521/179 485/509/179 473/496/179
f 485/509/190 497/522/190 498/523/190 486/510/190
f 486/510/189 498/523/189 499/524/189 487/511/189
f 487/511/188 499/524/188 500/525/188 488/512/188
f 488/512/187 500/525/187 501/526/187 489/513/187
f 489/513/186 501/526/186 502/527/186 490/514/186
f 490/514/185 502/527/185 503/528/185 491/515/185
f 491/516/196 503/529/196 504/530/196 492/517/196
f 492/517/195 504/530/195 505/531/195 493/518/195
f 493/518/194 505/531/194 506/532/194 494/519/194
f 494/519/193 506/532/193 507/533/193 495/520/193
f 495/520/192 507/533/192 508/534/192 496/521/192
f 496/521/191 508/534/191 497/522/191 485/509/191
f 497/522/202 509/535/202 510/536/202 498/523/202
f 498/523/311 510/536/311 511/537/311 499/524/311
f 499/524/200 511/537/200 512/538/200 500/525/200
f 500/525/199 512/538/199 513/539/199 501/526/199
f 501/526/198 513/539/198 514/540/198 502/527/198
f 502/527/197 514/540/197 515/541/197 503/528/197
f 503/529/208 515/542/208 516/543/208 504/530/208
f 504/530/207 516/543/207 517/544/207 505/531/207
f 505/531/206 517/544/206 518/545/206 506/532/206
f 506/532/205 518/545/205 519/546/205 507/533/205
f 507/533/204 519/546/204 520/547/204 508/534/204
f 508/534/203 520/547/203 509/535/203 497/522/203
f 509/535/214 521/548/214 522/549/214 510/536/214
f 510/536/213 522/549/213 523/550/213 511/537/213
f 511/537/212 523/550/212 524/551/212 512/538/212
f 512/538/211 524/551/211 525/552/211 513/539/211
f 513/539/210 525/552/210 526/553/210 514/540/210
f 514/540/209 526/553/209 527/554/209 515/541/209
f 515/542/220 527/555/220 528/556/220 516/543/220
f 516/543/219 528/556/219 529/557/219 517/544/219
f 517/544/218 529/557/218 530/558/218 518/545/218
f 518/545/217 530/558/217 531/559/217 519/546/217
f 519/546/216 531/559/216 532/560/216 520/547/216
f 520/547/215 532/560/215 521/548/215 509/535/215
f 521/548/226 533/561/226 534/562/226 522/549/226
f 522/549/225 534/562/225 535/563/225 523/550/225
f 523/550/224 535/563/224 536/564/224 524/551/224
f 524/551/223 536/564/223 537/565/223 525/552/223
f 525/552/222 537/565/222 538/566/222 526/553/222
f 526/553/221 538/566/221 539/567/221 527/554/221
f 527/555/232 539/568/232 540/569/232 528/556/232
f 528/556/231 540/569/231 541/570/231 529/557/231
f 529/557/230 541/570/230 542/571/230 530/558/230
f 530/558/229 542/571/229 543/572/229 531/559/229
f 531/559/228 543/572/228 544/573/228 532/560/228
f 532/560/227 544/573/227 533/561/227 521/548/227
f 533/561/238 545/574/238 546/575/238 534/562/238
f 534/562/237 546/575/237 547/576/237 535/563/237
f 535/563/236 547/576/236 548/577/236 536/564/236
f 536/564/235 548/577/235 549/578/235 537/565/235
f 537/565/234 549/578/234 550/579/234 538/566/234
f 538/566/233 550/579/233 551/580/233 539/567/233
f 539/568/244 551/581/244 552/582/244 540/569/244
f 540/569/243 552/582/243 553/583/243 541/570/243
f 541/570/242 553/583/242 554/584/242 542/571/242
f 542/571/241 554/584/241 555/585/241 543/572/241
f 543/572/240 555/585/240 556/586/240 544/573/240
f 544/573/239 556/586/239 545/574/239 533/561/239
f 545/574/250 557/587/250 558/588/250 546/575/250
f 546/575/249 558/588/249 559/589/249 547/576/249
f 547/576/248 559/589/248 560/590/248 548/577/248
f 548/577/247 560/590/247 561/591/247 549/578/247
f 549/578/246 561/591/246 562/592/246 550/579/246
f 550/579/245 562/592/245 563/593/245 551/580/245
f 551/581/256 563/594/256 564/595/256 552/582/256
f 552/582/255 564/595/255 565/596/255 553/583/255
f 553/583/254 565/596/254 566/597/254 554/584/254
f 554/584/253 566/597/253 567/598/253 555/585/253
f 555/585/312 567/598/312 568/599/312 556/586/312
f 556/586/251 568/599/251 557/587/251 545/574/251
f 557/587/262 569/600/262 570/601/262 558/588/262
f 558/588/261 570/601/261 571/602/261 559/589/261
f 559/589/260 571/602/260 572/603/260 560/590/260
f 560/590/259 572/603/259 573/604/259 561/591/259
f 561/591/258 573/604/258 574/605/258 562/592/258
f 562/592/257 574/605/257 575/606/257 563/593/257
f 563/594/268 575/607/268 576/608/268 564/595/268
f 564/595/267 576/608/267 577/609/267 565/596/267
f 565/596/266 577/609/266 578/610/266 566/597/266
f 566/597/265 578/610/265 579/611/265 567/598/265
f 567/598/264 579/611/264 580/612/264 568/599/264
f 568/599/263 580/612/263 569/600/263 557/587/263
f 569/600/274 581/613/274 582/614/274 570/601/274
f 570/601/273 582/614/273 583/615/273 571/602/273
f 571/602/272 583/615/272 584/616/272 572/603/272
f 572/603/271 584/616/271 585/617/271 573/604/271
f 573/604/270 585/617/270 586/618/270 574/605/270
f 574/605/269 586/618/269 587/619/269 575/606/269
f 575/607/280 587/620/280 588/621/280 576/608/280
f 576/608/279 588/621/279 589/622/279 577/609/279
f 577/609/278 589/622/278 590/623/278 578/610/278
f 578/610/277 590/623/277 591/624/277 579/611/277
f 579/611/276 591/624/276 592/625/276 580/612/276
f 580/612/275 592/625/275 581/613/275 569/600/275
f 581/613/286 593/626/286 594/627/286 582/614/286
f 582/614/285 594/627/285 595/628/285 583/615/285
f 583/615/284 595/628/284 596/629/284 584/616/284
f 584/616/283 596/629/283 597/630/283 585/617/283
f 585/617/282 597/630/282 598/631/282 586/618/282
f 586/618/281 598/631/281 599/632/281 587/619/281
f 587/620/292 599/633/292 600/634/292 588/621/292
f 588/621/291 600/634/291 601/635/291 589/622/291
f 589/622/290 601/635/290 602/636/290 590/623/290
f 590/623/289 602/636/289 603/637/289 591/624/289
f 591/624/288 603/637/288 604/638/288 592/625/288
f 592/625/287 604/638/287 593/626/287 581/613/287
f 593/626/298 29/2/298 30/5/298 594/627/298
f 594/627/297 30/5/297 31/7/297 595/628/297
f 595/628/296 31/7/296 32/9/296 596/629/296
f 596/629/295 32/9/295 33/11/295 597/630/295
f 597/630/294 33/11/294 34/13/294 598/631/294
f 598/631/293 34/13/293 35/15/293 599/632/293
f 599/633/304 35/16/304 36/19/304 600/634/304
f 600/634/303 36/19/303 37/21/303 601/635/303
f 601/635/302 37/21/302 38/23/302 602/636/302
f 602/636/301 38/23/301 39/25/301 603/637/301
f 603/637/300 39/25/300 40/27/300 604/638/300
f 604/638/299 40/27/299 29/2/299 593/626/299
f 878/1/1 877/1/1 904/1/1 903/1/1 902/1/1 901/1/1 900/1/1 890/1/1 889/1/1 888/1/1 882/1/1 881/1/1 880/1/1 879/1/1
f 898/1/2 897/1/2 896/1/2 895/1/2 894/1/2 893/1/2 892/1/2 891/1/2 887/1/2 886/1/2 885/1/2 884/1/2 883/1/2 899/1/2
f 902/1/373 903/1/373 884/1/373 885/1/373
f 877/1/374 878/1/374 898/1/374 899/1/374
f 888/1/375 889/1/375 892/1/375 893/1/375
f 903/1/376 904/1/376 883/1/376 884/1/376
f 878/1/377 879/1/377 897/1/377 898/1/377
f 889/1/378 890/1/378 891/1/378 892/1/378
f 904/1/379 877/1/379 899/1/379 883/1/379
f 879/1/380 880/1/380 896/1/380 897/1/380
f 890/1/381 900/1/381 887/1/381 891/1/381
f 880/1/382 881/1/382 895/1/382 896/1/382
f 882/1/383 888/1/383 893/1/383 894/1/383
f 881/1/384 882/1/384 894/1/384 895/1/384
f 900/1/385 901/1/385 886/1/385 887/1/385
f 901/1/386 902/1/386 885/1/386 886/1/386
f 906/1/1 905/1/1 932/1/1 931/1/1 930/1/1 929/1/1 928/1/1 918/1/1 917/1/1 916/1/1 910/1/1 909/1/1 908/1/1 907/1/1
f 926/1/2 925/1/2 924/1/2 923/1/2 922/1/2 921/1/2 920/1/2 919/1/2 915/1/2 914/1/2 913/1/2 912/1/2 911/1/2 927/1/2
f 930/1/387 931/1/387 912/1/387 913/1/387
f 905/1/388 906/1/388 926/1/388 927/1/388
f 916/1/389 917/1/389 920/1/389 921/1/389
f 931/1/390 932/1/390 911/1/390 912/1/390
f 906/1/391 907/1/391 925/1/391 926/1/391
f 917/1/392 918/1/392 919/1/392 920/1/392
f 932/1/393 905/1/393 927/1/393 911/1/393
f 907/1/394 908/1/394 924/1/394 925/1/394
f 918/1/395 928/1/395 915/1/395 919/1/395
f 908/1/396 909/1/396 923/1/396 924/1/396
f 910/1/397 916/1/397 921/1/397 922/1/397
f 909/1/398 910/1/398 922/1/398 923/1/398
f 928/1/399 929/1/399 914/1/399 915/1/399
f 929/1/400 930/1/400 913/1/400 914/1/400
usemtl Material.009
f 605/314/313 606/320/313 608/639/313 607/640/313
f 607/640/314 608/639/314 610/641/314 609/642/314
f 609/642/315 610/641/315 612/643/315 611/644/315
f 611/644/316 612/643/316 614/645/316 613/646/316
f 613/646/317 614/645/317 616/647/317 615/648/317
f 615/648/318 616/647/318 618/649/318 617/650/318
f 617/650/319 618/649/319 620/651/319 619/652/319
f 619/652/320 620/651/320 622/653/320 621/654/320
f 621/654/321 622/653/321 624/655/321 623/656/321
f 623/656/322 624/655/322 626/657/322 625/658/322
f 625/658/323 626/657/323 628/659/323 627/660/323
f 627/660/324 628/659/324 630/661/324 629/662/324
f 629/662/325 630/661/325 632/663/325 631/664/325
f 631/664/326 632/663/326 634/665/326 633/666/326
f 633/666/327 634/665/327 636/667/327 635/668/327
f 635/668/328 636/667/328 638/669/328 637/670/328
f 637/670/329 638/669/329 640/671/329 639/672/329
f 639/672/330 640/671/330 642/673/330 641/674/330
f 641/674/331 642/673/331 644/675/331 643/676/331
f 643/676/332 644/675/332 646/677/332 645/678/332
f 645/678/333 646/677/333 648/679/333 647/680/333
f 647/680/334 648/679/334 650/681/334 649/682/334
f 649/682/335 650/681/335 652/683/335 651/684/335
f 651/684/336 652/683/336 654/685/336 653/686/336
f 653/686/337 654/685/337 656/687/337 655/688/337
f 655/688/338 656/687/338 658/689/338 657/690/338
f 657/690/339 658/689/339 660/691/339 659/692/339
f 659/692/340 660/691/340 662/693/340 661/694/340
f 661/694/341 662/693/341 664/695/341 663/696/341
f 663/696/342 664/695/342 666/697/342 665/698/342
f 665/698/343 666/697/343 668/699/343 667/700/343
f 667/700/344 668/699/344 670/701/344 669/702/344
f 669/702/345 670/701/345 672/703/345 671/704/345
f 671/704/346 672/703/346 674/705/346 673/706/346
f 673/706/347 674/705/347 676/707/347 675/708/347
f 675/708/348 676/707/348 678/709/348 677/710/348
f 677/710/349 678/709/349 680/711/349 679/712/349
f 679/712/350 680/711/350 682/713/350 681/714/350
f 681/714/351 682/713/351 684/715/351 683/716/351
f 683/716/352 684/715/352 686/717/352 685/718/352
f 685/718/353 686/717/353 688/719/353 687/720/353
f 687/720/354 688/719/354 690/721/354 689/722/354
f 689/722/355 690/721/355 692/723/355 691/724/355
f 691/724/356 692/723/356 694/725/356 693/726/356
f 693/726/357 694/725/357 696/727/357 695/728/357
f 695/728/358 696/727/358 698/729/358 697/730/358
f 697/730/359 698/729/359 700/731/359 699/732/359
f 699/732/360 700/731/360 702/733/360 701/734/360
f 701/734/361 702/733/361 704/735/361 703/736/361
f 703/736/362 704/735/362 706/737/362 705/738/362
f 705/738/363 706/737/363 708/739/363 707/740/363
f 707/740/364 708/739/364 710/741/364 709/742/364
f 709/742/365 710/741/365 712/743/365 711/744/365
f 711/744/366 712/743/366 714/745/366 713/746/366
f 713/746/367 714/745/367 716/747/367 715/748/367
f 715/748/368 716/747/368 718/749/368 717/750/368
f 717/750/369 718/749/369 720/751/369 719/752/369
f 719/752/370 720/751/370 722/753/370 721/754/370
f 608/755/2 606/756/2 724/757/2 722/758/2 720/759/2 718/760/2 716/761/2 714/762/2 712/763/2 710/764/2 708/765/2 706/766/2 704/767/2 702/768/2 700/769/2 698/770/2 696/771/2 694/772/2 692/773/2 690/774/2 688/775/2 686/776/2 684/777/2 682/778/2 680/779/2 678/780/2 676/781/2 674/782/2 672/783/2 670/784/2 668/785/2 666/786/2 664/787/2 662/788/2 660/789/2 658/790/2 656/791/2 654/792/2 652/793/2 650/794/2 648/795/2 646/796/2 644/797/2 642/798/2 640/799/2 638/800/2 636/801/2 634/802/2 632/803/2 630/804/2 628/805/2 626/806/2 624/807/2 622/808/2 620/809/2 618/810/2 616/811/2 614/812/2 612/813/2 610/814/2
f 721/754/371 722/753/371 724/815/371 723/816/371
f 723/816/372 724/815/372 606/817/372 605/818/372
f 605/819/1 607/820/1 609/821/1 611/822/1 613/823/1 615/824/1 617/825/1 619/826/1 621/827/1 623/828/1 625/829/1 627/830/1 629/831/1 631/832/1 633/833/1 635/834/1 637/835/1 639/836/1 641/837/1 643/838/1 645/839/1 647/840/1 649/841/1 651/842/1 653/843/1 655/844/1 657/845/1 659/846/1 661/847/1 663/848/1 665/849/1 667/850/1 669/851/1 671/852/1 673/853/1 675/854/1 677/855/1 679/856/1 681/857/1 683/858/1 685/859/1 687/860/1 689/861/1 691/862/1 693/863/1 695/864/1 697/865/1 699/866/1 701/867/1 703/868/1 705/869/1 707/870/1 709/871/1 711/872/1 713/873/1 715/874/1 717/875/1 719/876/1 721/877/1 723/878/1
usemtl Material.010
f 725/314/313 726/320/313 728/639/313 727/640/313
f 727/640/314 728/639/314 730/641/314 729/642/314
f 729/642/315 730/641/315 732/643/315 731/644/315
f 731/644/316 732/643/316 734/645/316 733/646/316
f 733/646/317 734/645/317 736/647/317 735/648/317
f 735/648/318 736/647/318 738/649/318 737/650/318
f 737/650/319 738/649/319 740/651/319 739/652/319
f 739/652/320 740/651/320 742/653/320 741/654/320
f 741/654/321 742/653/321 744/655/321 743/656/321
f 743/656/322 744/655/322 746/657/322 745/658/322
f 745/658/323 746/657/323 748/659/323 747/660/323
f 747/660/324 748/659/324 750/661/324 749/662/324
f 749/662/325 750/661/325 752/663/325 751/664/325
f 751/664/326 752/663/326 754/665/326 753/666/326
f 753/666/327 754/665/327 756/667/327 755/668/327
f 755/668/328 756/667/328 758/669/328 757/670/328
f 757/670/329 758/669/329 760/671/329 759/672/329
f 759/672/330 760/671/330 762/673/330 761/674/330
f 761/674/331 762/673/331 764/675/331 763/676/331
f 763/676/332 764/675/332 766/677/332 765/678/332
f 765/678/333 766/677/333 768/679/333 767/680/333
f 767/680/334 768/679/334 770/681/334 769/682/334
f 769/682/335 770/681/335 772/683/335 771/684/335
f 771/684/336 772/683/336 774/685/336 773/686/336
f 773/686/337 774/685/337 776/687/337 775/688/337
f 775/688/338 776/687/338 778/689/338 777/690/338
f 777/690/339 778/689/339 780/691/339 779/692/339
f 779/692/340 780/691/340 782/693/340 781/694/340
f 781/694/341 782/693/341 784/695/341 783/696/341
f 783/696/342 784/695/342 786/697/342 785/698/342
f 785/698/343 786/697/343 788/699/343 787/700/343
f 787/700/344 788/699/344 790/701/344 789/702/344
f 789/702/345 790/701/345 792/703/345 791/704/345
f 791/704/346 792/703/346 794/705/346 793/706/346
f 793/706/347 794/705/347 796/707/347 795/708/347
f 795/708/348 796/707/348 798/709/348 797/710/348
f 797/710/349 798/709/349 800/711/349 799/712/349
f 799/712/350 800/711/350 802/713/350 801/714/350
f 801/714/351 802/713/351 804/715/351 803/716/351
f 803/716/352 804/715/352 806/717/352 805/718/352
f 805/718/353 806/717/353 808/719/353 807/720/353
f 807/720/354 808/719/354 810/721/354 809/722/354
f 809/722/355 810/721/355 812/723/355 811/724/355
f 811/724/356 812/723/356 814/725/356 813/726/356
f 813/726/357 814/725/357 816/727/357 815/728/357
f 815/728/358 816/727/358 818/729/358 817/730/358
f 817/730/359 818/729/359 820/731/359 819/732/359
f 819/732/360 820/731/360 822/733/360 821/734/360
f 821/734/361 822/733/361 824/735/361 823/736/361
f 823/736/362 824/735/362 826/737/362 825/738/362
f 825/738/363 826/737/363 828/739/363 827/740/363
f 827/740/364 828/739/364 830/741/364 829/742/364
f 829/742/365 830/741/365 832/743/365 831/744/365
f 831/744/366 832/743/366 834/745/366 833/746/366
f 833/746/367 834/745/367 836/747/367 835/748/367
f 835/748/368 836/747/368 838/749/368 837/750/368
f 837/750/369 838/749/369 840/751/369 839/752/369
f 839/752/370 840/751/370 842/753/370 841/754/370
f 728/755/2 726/756/2 844/757/2 842/758/2 840/759/2 838/760/2 836/761/2 834/762/2 832/763/2 830/764/2 828/765/2 826/766/2 824/767/2 822/768/2 820/769/2 818/770/2 816/771/2 814/772/2 812/773/2 810/774/2 808/775/2 806/776/2 804/777/2 802/778/2 800/779/2 798/780/2 796/781/2 794/782/2 792/783/2 790/784/2 788/785/2 786/786/2 784/787/2 782/788/2 780/789/2 778/790/2 776/791/2 774/792/2 772/793/2 770/794/2 768/795/2 766/796/2 764/797/2 762/798/2 760/799/2 758/800/2 756/801/2 754/802/2 752/803/2 750/804/2 748/805/2 746/806/2 744/807/2 742/808/2 740/809/2 738/810/2 736/811/2 734/812/2 732/813/2 730/814/2
f 841/754/371 842/753/371 844/815/371 843/816/371
f 843/816/372 844/815/372 726/817/372 725/818/372
f 725/819/1 727/820/1 729/821/1 731/822/1 733/823/1 735/824/1 737/825/1 739/826/1 741/827/1 743/828/1 745/829/1 747/830/1 749/831/1 751/832/1 753/833/1 755/834/1 757/835/1 759/836/1 761/837/1 763/838/1 765/839/1 767/840/1 769/841/1 771/842/1 773/843/1 775/844/1 777/845/1 779/846/1 781/847/1 783/848/1 785/849/1 787/850/1 789/851/1 791/852/1 793/853/1 795/854/1 797/855/1 799/856/1 801/857/1 803/858/1 805/859/1 807/860/1 809/861/1 811/862/1 813/863/1 815/864/1 817/865/1 819/866/1 821/867/1 823/868/1 825/869/1 827/870/1 829/871/1 831/872/1 833/873/1 835/874/1 837/875/1 839/876/1 841/877/1 843/878/1
l 846 845
l 847 846
l 848 847
l 849 848
l 850 849
l 851 850
l 852 851
l 853 852
l 854 853
l 855 854
l 856 855
l 857 856
l 858 857
l 859 858
l 860 859
l 861 860
l 862 861
l 863 862
l 864 863
l 865 864
l 866 865
l 867 866
l 868 867
l 869 868
l 870 869
l 871 870
l 872 871
l 873 872
l 874 873
l 875 874
l 876 875
l 845 876
